<svg xmlns="http://www.w3.org/2000/svg" width="533" height="702" viewBox="0 0 533 702">
    <path fill="#FFDFDA" fill-rule="nonzero" d="M973.44 402.082c14.755-4.458 28.566-15.25 32.251-30.224 4.216-17.209-5.505-34.556-6.91-52.225-4.54-57.891 77.82-98.735 66.07-155.601-4.665-22.61-23.52-39.243-42.1-52.985-29.765-21.942-62.789-41.328-99.36-46.799-55.509-8.316-113.505 16.126-167.459.68-43.517-12.463-76.818-48.988-120.036-62.464C603-7.8 567.556-3.756 533.38.402c-18.43 2.235-37.735 4.815-52.605 15.872-27.645 20.584-29.385 61.232-47.895 90.362-28.59 44.921-91.274 53.744-143.834 45.014-52.56-8.731-103.598-30.225-156.85-28.474-11.38.38-23.036 1.924-32.966 7.51-12.071 6.784-20.226 18.74-27.437 30.57A494.646 494.646 0 0 0 .066 407.046c-.31 14.916.22 30.478 7.234 43.643 8.87 16.656 26.597 26.62 44.243 33.323 42.377 16.126 89.19 18.763 130.714 36.95 40.05 17.543 72.487 48.309 107.365 74.674a571.897 571.897 0 0 0 235.545 104.898c20.031 3.87 40.823 6.635 60.727 2.165 22.934-5.148 42.7-19.443 60.473-34.831 47.284-40.936 85.18-91.444 128.755-136.308a733.03 733.03 0 0 1 97.817-84.35c16.126-11.621 33.266-25.42 51.235-34.013 16.449-7.856 31.872-5.874 49.265-11.115z"/>
</svg>
