<svg xmlns="http://www.w3.org/2000/svg" width="721" height="570" viewBox="0 0 721 570">
    <defs>
        <linearGradient id="a" x1="48.843%" x2="53.643%" y1="101.416%" y2="-1.025%">
            <stop offset="0%" stop-color="gray" stop-opacity=".25"/>
            <stop offset="54%" stop-color="gray" stop-opacity=".12"/>
            <stop offset="100%" stop-color="gray" stop-opacity=".1"/>
        </linearGradient>
        <linearGradient id="b" x1="50.006%" x2="50.006%" y1="99.993%" y2=".023%">
            <stop offset="0%" stop-color="gray" stop-opacity=".25"/>
            <stop offset="54%" stop-color="gray" stop-opacity=".12"/>
            <stop offset="100%" stop-color="gray" stop-opacity=".1"/>
        </linearGradient>
    </defs>
    <g fill="none" fill-rule="evenodd">
        <path fill="#FFF5F3" fill-rule="nonzero" d="M693.704 322.661c-27.28 41.045-20.375 98.095-6.64 143.283 4.625 15.126 9.85 31.112 6.745 47.831-3.799 20.447-19.285 36.194-35.16 45.01-28.93 16.078-62.513 14.757-87.426-3.43-21.531-15.721-36.165-42.545-58.139-57.493-36.726-24.926-85.768-11.59-128.116 9.834-29.961 15.14-62.856 34.45-91.251 22.336-19.979-8.525-32.928-31.482-39.363-56.27-3.105-11.968-5.14-25.007-11.76-34.238-3.964-5.485-9.249-9.252-14.726-12.312-50.019-28.244-116.013-7.368-164.407-39.128-32.656-21.411-52.087-64.458-59.34-110.155-7.255-45.697-3.68-94.302 1.169-142.133 3.442-33.987 8.377-70.346 27.331-97.593C52.673 9.384 85.197-2.887 113.883.57c28.686 3.456 53.91 20.571 75.865 41.236 27.437 25.773 52.437 58.458 87.274 67.405 23.724 6.113 49.292.377 74.225-2.643 41.688-4.99 83-2.214 124.034 1.084 39.29 3.159 78.83 6.866 115.729 20.334 26.11 9.529 46.47 28.508 70.949 41.13 15.955 8.228 33.727 9.668 48.677 20.486 18.42 13.316 34.699 37.463 28.297 67.3-6.085 28.41-30.754 43.952-45.23 65.76z"/>
        <path fill="#FF5538" fill-rule="nonzero" d="M581.919 169.452h27.015v40.906h-27.015z" opacity=".1"/>
        <path fill="#FF5538" fill-rule="nonzero" d="M584.542 173.431h21.762v32.949h-21.762zM527.084 141.036h41.49v40.906h-41.49z" opacity=".1"/>
        <path fill="#FF5538" fill-rule="nonzero" d="M531.114 145.015h33.423v32.949h-33.423zM42.697 80.173h126.815v3.377H42.697zM42.697 96.687h126.815v3.377H42.697z" opacity=".1"/>
        <path fill="#D6D6E3" fill-rule="nonzero" d="M256.627 299.115h12.956v144.816h-12.956z"/>
        <path fill="#AEBEE1" fill-rule="nonzero" d="M648.012 314.321V180.74c.004-7.753 6.288-14.036 14.04-14.036 7.74.015 14.008 6.294 14.012 14.036v161.668c0 7.755-6.286 14.043-14.04 14.043h-86.95c-7.753 0-14.039-6.288-14.039-14.043 0-7.756 6.286-14.043 14.04-14.043h58.898c7.753 0 14.039-6.287 14.039-14.043z"/>
        <path fill="#535461" fill-rule="nonzero" d="M648.012 314.321V180.74c.004-7.753 6.288-14.036 14.04-14.036 7.74.015 14.008 6.294 14.012 14.036v161.668c0 7.755-6.286 14.043-14.04 14.043h-86.95c-7.753 0-14.039-6.288-14.039-14.043 0-7.756 6.286-14.043 14.04-14.043h58.898c7.753 0 14.039-6.287 14.039-14.043z"/>
        <path fill="#D6D6E3" fill-rule="nonzero" d="M561.055 341.653c.4-7.452 6.558-13.29 14.02-13.289h58.898c7.753 0 14.039-6.287 14.039-14.043V180.74c-.005-7.497 5.879-13.676 13.365-14.036v174.95H561.055z"/>
        <path fill="#AEBEE1" fill-rule="nonzero" d="M127.183 318.828V185.246c0-7.742-6.266-14.024-14.007-14.042-7.753 0-14.039 6.287-14.039 14.042v161.668a14.045 14.045 0 0 0 14.04 14.076h86.943c7.754 0 14.04-6.288 14.04-14.043 0-7.756-6.286-14.043-14.04-14.043h-58.892a14.037 14.037 0 0 1-14.045-14.076z"/>
        <path fill="#535461" fill-rule="nonzero" d="M127.183 318.828V185.246c0-7.742-6.266-14.024-14.007-14.042-7.753 0-14.039 6.287-14.039 14.042v161.668a14.045 14.045 0 0 0 14.04 14.076h86.943c7.754 0 14.04-6.288 14.04-14.043 0-7.756-6.286-14.043-14.04-14.043h-58.892a14.037 14.037 0 0 1-14.045-14.076z"/>
        <path fill="#D6D6E3" fill-rule="nonzero" d="M214.14 346.16c-.4-7.452-6.559-13.29-14.02-13.29h-58.892a14.037 14.037 0 0 1-14.045-14.042V185.246c-.002-7.485-5.872-13.653-13.346-14.023V346.16H214.14zM512.945 299.115h12.956v148.193h-12.956z"/>
        <path fill="#000" fill-rule="nonzero" d="M256.627 299.115h12.956v10.706h-12.956zM512.945 299.115h12.956v10.706h-12.956zM302.9 210.926c-.207 2.283-.47 4.596-.786 6.94h-1.83v-6.94h2.616z" opacity=".1"/>
        <path fill="#535461" fill-rule="nonzero" d="M355.984 283.01c.04 2.347-1.651 4.27-3.746 4.27h-39.54v-4.124h32.9c1.421 0 2.306-1.718 1.593-3.093l-29.836-60.698a2.643 2.643 0 0 0-2.312-1.493h-14.76v-6.939h18.638a1.85 1.85 0 0 1 1.619 1.044l34.202 66.084a11.237 11.237 0 0 1 1.242 4.95z"/>
        <path fill="#535461" fill-rule="nonzero" d="M283.364 272.001l-.542.912-5.067-3.383 15.678-120.584h4.036s.165.556.436 1.613c2.702 10.421 15.975 69.44-14.541 121.442z"/>
        <path fill="#000" fill-rule="nonzero" d="M297.899 150.559L283.364 272l-.542.912-5.067-3.383 15.678-120.584h4.036s.159.575.43 1.613z" opacity=".1"/>
        <path fill="#D6D6E3" fill-rule="nonzero" d="M273.17 271.901L288.042 147.7l9.512 1.14-14.872 124.202z"/>
        <path fill="#E3EDF9" fill-rule="nonzero" d="M240.573 283.057a1.136 1.136 0 0 1-1.13 1.13h-1.691a1.13 1.13 0 0 1-1.13-1.13.549.549 0 0 1 0-.132 1.13 1.13 0 0 1 1.116-.991h1.692c.516.005.964.358 1.09.859.029.085.047.174.053.264zM245.64 283.057a1.136 1.136 0 0 1-1.13 1.13h-1.691a1.13 1.13 0 0 1-1.13-1.13c0-.105.016-.21.046-.31.05-.184.148-.35.285-.483.208-.213.494-.332.792-.33h1.692c.445-.003.85.256 1.037.66.064.146.098.304.099.463zM250.146 283.057a1.136 1.136 0 0 1-1.13 1.13h-1.691a1.13 1.13 0 0 1-1.13-1.13 1.07 1.07 0 0 1 .099-.47 1.15 1.15 0 0 1 1.024-.66h1.691a1.123 1.123 0 0 1 1.13 1.13h.007zM255.22 283.057a1.136 1.136 0 0 1-1.13 1.13h-1.691a1.13 1.13 0 0 1-.925-1.778l.132-.145c.209-.213.495-.332.793-.33h1.69c.312.003.608.135.82.363.199.203.31.476.31.76z"/>
        <path fill="#000" fill-rule="nonzero" d="M240.54 282.786a1.136 1.136 0 0 1-1.097 1.401h-1.691a1.13 1.13 0 0 1-1.13-1.13.549.549 0 0 1 0-.132l3.918-.139zM245.547 282.608c.06.14.091.29.093.442a1.136 1.136 0 0 1-1.13 1.13h-1.691a1.13 1.13 0 0 1-1.13-1.13c0-.105.016-.21.046-.31l3.812-.132zM249.98 282.456c.112.178.171.384.172.594a1.136 1.136 0 0 1-1.13 1.13h-1.69a1.13 1.13 0 0 1-1.13-1.13 1.07 1.07 0 0 1 .099-.469l3.68-.125zM255.22 283.057a1.137 1.137 0 0 1-1.13 1.13h-1.691a1.13 1.13 0 0 1-.925-1.778l3.435-.119c.2.205.312.48.31.767z" opacity=".1"/>
        <path fill="#D6D6E3" fill-rule="nonzero" d="M265.354 287.564h-32.67v-1.487a2.544 2.544 0 0 1 2.458-2.544l26.202-.906a3.884 3.884 0 0 1 4.017 3.88l-.007 1.057z"/>
        <path fill="#535461" fill-rule="nonzero" d="M426.537 283.01c-.04 2.347 1.652 4.27 3.746 4.27h39.56v-4.124h-32.94c-1.42 0-2.306-1.718-1.592-3.093l29.835-60.698a2.643 2.643 0 0 1 2.313-1.493h14.765v-6.939H463.6a1.85 1.85 0 0 0-1.592 1.038l-34.203 66.083a11.237 11.237 0 0 0-1.268 4.957z"/>
        <path fill="#535461" fill-rule="nonzero" d="M499.164 272.001l.542.912 5.067-3.383-15.678-120.584h-4.036s-.165.556-.436 1.613c-2.71 10.421-16.008 69.44 14.54 121.442z"/>
        <path fill="#000" fill-rule="nonzero" d="M484.623 150.559L499.157 272l.542.912 5.067-3.383-15.67-120.584h-4.037s-.165.575-.436 1.613z" opacity=".1"/>
        <path fill="#D6D6E3" fill-rule="nonzero" d="M484.98 148.826l9.511-1.14 14.872 124.203-9.511 1.14z"/>
        <path fill="#E3EDF9" fill-rule="nonzero" d="M541.949 283.057a1.136 1.136 0 0 0 1.13 1.13h1.69a1.13 1.13 0 0 0 1.13-1.13.549.549 0 0 0 0-.132 1.13 1.13 0 0 0-1.116-.991h-1.691a1.136 1.136 0 0 0-1.09.859 1.044 1.044 0 0 0-.053.264zM536.881 283.057a1.136 1.136 0 0 0 1.13 1.13h1.691a1.13 1.13 0 0 0 1.084-1.44 1.064 1.064 0 0 0-.284-.483 1.103 1.103 0 0 0-.793-.33h-1.724a1.136 1.136 0 0 0-1.038.66 1.163 1.163 0 0 0-.066.463zM532.376 283.057a1.136 1.136 0 0 0 1.13 1.13h1.69a1.13 1.13 0 0 0 1.13-1.13 1.07 1.07 0 0 0-.099-.47 1.15 1.15 0 0 0-1.024-.66h-1.691a1.123 1.123 0 0 0-1.13 1.13h-.006zM527.302 283.057a1.136 1.136 0 0 0 1.13 1.13h1.69a1.13 1.13 0 0 0 .926-1.778l-.132-.145a1.103 1.103 0 0 0-.793-.33h-1.692a1.136 1.136 0 0 0-.819.363 1.09 1.09 0 0 0-.31.76z"/>
        <path fill="#000" fill-rule="nonzero" d="M541.982 282.786a1.136 1.136 0 0 0 1.097 1.401h1.69a1.13 1.13 0 0 0 1.13-1.13.549.549 0 0 0 0-.132l-3.917-.139zM536.974 282.608c-.06.14-.091.29-.093.442a1.136 1.136 0 0 0 1.13 1.13h1.691a1.13 1.13 0 0 0 1.13-1.13c0-.105-.016-.21-.046-.31l-3.812-.132zM532.54 282.456c-.11.178-.17.384-.171.594a1.136 1.136 0 0 0 1.13 1.13h1.691a1.13 1.13 0 0 0 1.13-1.13 1.07 1.07 0 0 0-.1-.469l-3.68-.125zM527.302 283.057a1.137 1.137 0 0 0 1.13 1.13h1.69a1.13 1.13 0 0 0 .926-1.778l-3.436-.119c-.2.205-.311.48-.31.767z" opacity=".1"/>
        <path fill="#D6D6E3" fill-rule="nonzero" d="M517.167 287.564h32.67v-1.487a2.544 2.544 0 0 0-2.458-2.544l-26.202-.906a3.884 3.884 0 0 0-4.017 3.88l.007 1.057z"/>
        <path fill="url(#a)" fill-rule="nonzero" d="M653.912 305.48c15.241-25.86 9.718-78.02 10.333-79.017.548-.88-1.553-25.442-15.56-31.443-2.53-5.016-5.02-10.666-5.02-10.666-.245.23-.516.432-.806.602-.11-.3-.218-.604-.324-.912a56.104 56.104 0 0 1-.509-1.593c.392.125.792.227 1.196.304a4.98 4.98 0 0 0 3.198-.284c.342-.184.653-.423.918-.707 1.103-.734 1.711-2.056 2.227-3.304l4.076-9.768c1.836-4.407 3.686-8.842 4.664-13.514a38.06 38.06 0 0 0-1.625-21.054c-.965-2.564-2.3-5.128-4.565-6.661-4.54-3.08-10.855-.952-16.041-2.756-1.705-.595-3.244-1.6-4.949-2.207-3.68-1.322-7.835-.615-11.376 1.03-3.541 1.646-6.409 4.263-9.507 6.609-1.526 1.17-3.964 2.38-5.761 3.965-1.744 1.361-3.086 3.007-2.828 5.174.29 2.479 2.9 3.965 5.332 4.547.403.093.819.165 1.228.238a23.794 23.794 0 0 0 10.155 39.518 55.756 55.756 0 0 1 3.21 7.223c.12.34.236.68.35 1.024-4.003 1.137-7.134 2.082-7.762 2.604-1.896 1.573 2.075 15.345 2.075 15.345-1.011 1.282-2.042 2.742-3.086 4.308a92.896 92.896 0 0 0-14.64 40.027c-.66 5.227-1.52 10.574-2.61 15.656l-47.35-9.497-.099 1.17-1.13-.278-3.554-.879-.139.8-.541-.258c-8.807-4.13-23.646-9.403-33.694-3.965-10.604 5.71 12.281 13.296 26.968 17.334-4.87.238-9.527 1.408-13.213 4.144-10.65 7.982 19.47 12.14 33.694 13.613l.574.06v.303l4.929.456 1.156.106.112 1.758s7.056 1.156 16.484 2.557c-10.762 2.69-24.061 4.553-33.297 5.644-9.792 1.15-18.13 7.97-20.759 17.479a15.547 15.547 0 0 0-.237 8.406c2.748 9.602-.608 80.239-1.368 95.451l-17.409 10.025s-27.087 3.304-9.044 9.655c1.626.555 3.288.997 4.975 1.322-2.379 1.533-2.174 3.535 4.836 5.994 18.056 6.33 60.028-.278 60.028-.278s-.918-7.441-2.411-13.626l.462.04s-4.334-16.132 2.24-24.267c6.573-8.135-1.104-70.049-1.104-70.049s11.51-4.764 45.91-5.075c27.748 7.124 41.272-18.378 41.08-31.562-.06-.297-.072-.6-.092-.872z"/>
        <path fill="#F8C7B9" fill-rule="nonzero" d="M551.363 265.406l-2.94 11.895s-2.642-.595-6.606-1.612c-13.425-3.476-41.741-11.823-30.391-17.949 9.784-5.286 24.193-.145 32.75 3.866 3.13 1.474 5.483 2.795 6.533 3.417.443.25.654.383.654.383z"/>
        <path fill="#000" fill-rule="nonzero" d="M550.537 268.763l-2.114 8.59s-2.642-.594-6.606-1.612l2.385-14.082c3.131 1.474 5.483 2.795 6.534 3.417l-.199 3.687z" opacity=".1"/>
        <path fill="#D9DFE8" fill-rule="nonzero" d="M550.544 278.167l-8.206-2.029 2.55-15.04 6.561 1.618z"/>
        <path fill="#000" fill-rule="nonzero" d="M550.544 278.167l-3.541-.873 1.334-15.344 3.112.766z" opacity=".1"/>
        <path fill="#707B9D" fill-rule="nonzero" d="M629.718 215.87s-15.757-9.107-22.76 17.016c-7.003 26.123-7.664 38.157-7.664 38.157l-49.76-9.952-1.58 18.18s53.204 17.181 59.896 15.932c6.693-1.249 28.409-37.668 28.409-37.668s19.74-28.224-6.54-41.665z"/>
        <g fill-rule="nonzero" opacity=".1">
            <path fill="#F8C7B9" d="M551.363 265.406l-2.94 11.895s-2.642-.595-6.606-1.612c-13.425-3.476-41.741-11.823-30.391-17.949 9.784-5.286 24.193-.145 32.75 3.866 3.13 1.474 5.483 2.795 6.533 3.417.443.25.654.383.654.383z"/>
            <path fill="#000" d="M550.537 268.763l-2.114 8.59s-2.642-.594-6.606-1.612l2.385-14.082c3.131 1.474 5.483 2.795 6.534 3.417l-.199 3.687z"/>
            <path fill="#000" d="M550.544 278.167l-8.206-2.029 2.55-15.04 6.561 1.618z"/>
            <path fill="#000" d="M550.544 278.167l-3.541-.873 1.334-15.344 3.112.766z"/>
            <path fill="#000" d="M629.718 216.53s-15.757-9.106-22.76 17.017c-7.003 26.123-7.664 38.157-7.664 38.157l-49.76-9.952-1.58 18.18s53.204 17.181 59.896 15.932c6.693-1.249 28.409-37.668 28.409-37.668s19.74-28.224-6.54-41.666z"/>
        </g>
        <path fill="#68739D" fill-rule="nonzero" d="M529.495 418.284l-20.315 11.704s-26.321 3.225-8.787 9.37c17.534 6.146 58.297-.27 58.297-.27s-2.266-18.319-5.424-20.876c-3.158-2.558-23.77.072-23.77.072z"/>
        <path fill="#18365B" fill-rule="nonzero" d="M608.676 286.976s-10.108 5.286-28.065 9.853c-10.525 2.643-23.698 4.52-32.802 5.59a23.66 23.66 0 0 0-20.164 16.938 15.097 15.097 0 0 0-.231 8.194c2.993 10.461-1.473 95.498-1.473 95.498l30.853 2.855s-4.209-15.669 2.18-23.566c6.389-7.897-1.07-68.007-1.07-68.007s11.178-4.625 44.581-4.93c30.946 7.93 43.697-25.95 38.92-35.447-4.776-9.496-32.73-6.978-32.73-6.978z"/>
        <g fill="#000" fill-rule="nonzero" opacity=".1">
            <path d="M529.495 418.284l-20.315 11.704s-26.321 3.225-8.787 9.37c17.534 6.146 58.297-.27 58.297-.27s-2.266-18.319-5.424-20.876c-3.158-2.558-23.77.072-23.77.072z"/>
            <path d="M608.676 286.976s-10.108 5.286-28.065 9.853c-10.525 2.643-23.698 4.52-32.802 5.59a23.66 23.66 0 0 0-20.164 16.938 15.097 15.097 0 0 0-.231 8.194c2.993 10.461-1.473 95.498-1.473 95.498l30.853 2.855s-4.209-15.669 2.18-23.566c6.389-7.897-1.07-68.007-1.07-68.007s11.178-4.625 44.581-4.93c30.946 7.93 43.697-25.95 38.92-35.447-4.776-9.496-32.73-6.978-32.73-6.978z"/>
        </g>
        <path fill="#68739D" fill-rule="nonzero" d="M539.022 425.388l-20.316 11.704s-26.307 3.198-8.786 9.37c17.52 6.173 58.297-.27 58.297-.27s-2.266-18.319-5.424-20.876c-3.158-2.558-23.771.072-23.771.072z"/>
        <path fill="#1C3E66" fill-rule="nonzero" d="M611.98 336.506c-33.404.304-44.582 4.93-44.582 4.93s7.458 60.136 1.07 68.006c-6.389 7.87-2.18 23.566-2.18 23.566l-30.854-2.855s.053-1.005.14-2.802c.74-14.776 3.996-83.371 1.32-92.696a15.097 15.097 0 0 1 .232-8.168 23.667 23.667 0 0 1 20.157-16.977c9.097-1.064 22.27-2.914 32.795-5.59l.515-.133c17.64-4.533 27.55-9.72 27.55-9.72s27.953-2.512 32.73 6.985a11.237 11.237 0 0 1 .977 4.79c.238 12.814-12.909 37.583-39.87 30.664z"/>
        <path fill="#F8C7B9" fill-rule="nonzero" d="M565.449 280.229l-1.13 12.225s-2.716-.192-6.752-.615c-13.788-1.434-43.036-5.465-32.697-13.216 8.893-6.662 23.903-3.754 32.961-1.058 3.303.992 5.84 1.95 6.97 2.406.416.158.648.258.648.258zM647.51 200.3s-4.136 3.238-9.19 6.794c-5.543 1.255-11.978 2.293-16.616 2.967 1.659-5.287.66-11.234-1.209-16.448a61.919 61.919 0 0 0-8.291-15.253l27.96-8.73c-2.194 5.558-1.203 11.896.66 17.407a57.4 57.4 0 0 0 6.686 13.263z"/>
        <path fill="#000" fill-rule="nonzero" d="M565.131 283.672l-.812 8.782s-2.716-.192-6.752-.615l.264-14.28c3.303.991 5.84 1.95 6.97 2.405l.33 3.708z" opacity=".1"/>
        <path fill="#D9DFE8" fill-rule="nonzero" d="M566.539 292.97l-8.417-.78.277-15.252 6.732.62z"/>
        <path fill="#000" fill-rule="nonzero" d="M647.51 200.3s-4.136 3.238-9.19 6.794c-5.543 1.255-11.978 2.293-16.616 2.967 1.659-5.287.66-11.234-1.209-16.448 6.832-1.983 16.603-4.547 20.336-6.609a57.4 57.4 0 0 0 6.679 13.296z" opacity=".1"/>
        <path fill="#D9DFE8" fill-rule="nonzero" d="M641.92 187.335s4.678 10.62 7.625 15.417c2.946 4.798-34.236 9.252-34.236 9.252s-3.858-13.37-2.015-14.902c1.843-1.533 25.515-6.661 28.627-9.767z"/>
        <path fill="#000" fill-rule="nonzero" d="M651.903 305.85a33.457 33.457 0 0 1-5.787 7.493c-16.424 15.61-43.346-.66-55.496-9.556 17.64-4.533 27.55-9.72 27.55-9.72s27.952-2.512 32.73 6.985a11.237 11.237 0 0 1 1.003 4.797z" opacity=".1"/>
        <path fill="#707B9D" fill-rule="nonzero" d="M646.222 312.226c-18.67 17.737-50.872-5.749-59.553-12.668a64.085 64.085 0 0 1-2.193-1.817c3.429-3.212 6.441-10.019 8.826-18.345a161.024 161.024 0 0 0 4.803-24.306 90.22 90.22 0 0 1 14.218-38.877c1.01-1.52 1.982-2.94 2.993-4.183 7.049-8.967 18.895-14.664 18.895-14.664 25-7.309 28.362 29.784 27.695 30.855-.668 1.07 6.018 63.38-15.684 84.005z"/>
        <path fill="#000" fill-rule="nonzero" d="M648.64 261.52s-16.074 39.254-22.503 41.494c-3.68 1.276-23.334-1.143-39.468-3.45-1.407-1.123-2.193-1.817-2.193-1.817 3.429-3.211 6.441-10.018 8.826-18.344l20.778.99s-1.156-11.987 1.896-38.87c3.053-26.883 19.972-20.221 19.972-20.221 27.993 9.377 12.692 40.218 12.692 40.218zM566.539 292.97l-3.634-.338-.965-15.364 3.191.29z" opacity=".1"/>
        <path fill="#707B9D" fill-rule="nonzero" d="M635.545 219.57s-16.92-6.654-19.972 20.222c-3.052 26.876-1.896 38.87-1.896 38.87l-50.693-2.425 1.143 18.213s55.172 9.06 61.6 6.826c6.429-2.233 22.503-41.494 22.503-41.494s15.281-30.841-12.685-40.212z"/>
        <path fill="#000" fill-rule="nonzero" d="M636.682 179.775c-.74-4.018 3.455-3.965 4.961-7.745l-27.96 8.73a61.725 61.725 0 0 1 5.18 8.24c1.45.43 2.94.718 4.447.859 6.666.634 8.747-5.928 13.372-10.084z" opacity=".1"/>
        <ellipse cx="623.935" cy="164.443" fill="#F8C7B9" fill-rule="nonzero" rx="23.103" ry="23.097" transform="rotate(-84.72 623.935 164.443)"/>
        <path fill="#000" fill-rule="nonzero" d="M601.144 143.574c.284 2.405 2.821 3.872 5.18 4.414 2.359.542 4.915.569 6.983 1.83 3.304 2.036 4.195 6.556 3.78 10.442-.232 2.194-.562 4.884 1.235 6.159a4.79 4.79 0 0 0 1.85.66c1.874.38 3.798.447 5.694.2 1.11-.146 2.253-.397 3.304-.087 1.73.502 2.755 2.326 3.092 4.09.337 1.765.152 3.602.423 5.38a11.167 11.167 0 0 0 8.8 9.08 4.842 4.842 0 0 0 3.105-.278c1.255-.66 1.896-2.068 2.438-3.383l3.964-9.49c1.783-4.275 3.58-8.59 4.532-13.124a36.963 36.963 0 0 0-1.58-20.446c-.937-2.485-2.232-4.976-4.432-6.47-4.407-2.993-10.571-.925-15.579-2.643-1.658-.575-3.151-1.553-4.803-2.141-3.574-1.276-7.61-.602-11.053 1.004-3.442 1.606-6.223 4.137-9.25 6.443-2.622 2.042-8.178 4.203-7.683 8.36z" opacity=".1"/>
        <path fill="#B96B6B" fill-rule="nonzero" d="M601.752 143.065c.284 2.405 2.821 3.873 5.18 4.414 2.358.542 4.915.569 6.983 1.831 3.303 2.035 4.195 6.555 3.779 10.441-.231 2.194-.562 4.884 1.235 6.16.565.345 1.195.57 1.85.66 1.875.38 3.799.447 5.695.198 1.11-.145 2.253-.396 3.304-.086 1.73.503 2.755 2.327 3.091 4.091.337 1.764.152 3.602.423 5.38a11.167 11.167 0 0 0 8.8 9.08 4.842 4.842 0 0 0 3.106-.278c1.255-.661 1.896-2.069 2.437-3.384l3.964-9.49c1.784-4.275 3.581-8.59 4.533-13.124a36.963 36.963 0 0 0-1.58-20.446c-.938-2.485-2.232-4.976-4.433-6.47-4.406-2.993-10.57-.925-15.578-2.643-1.658-.575-3.151-1.553-4.803-2.141-3.574-1.276-7.61-.602-11.053 1.004-3.442 1.606-6.223 4.137-9.25 6.443-2.616 2.042-8.172 4.203-7.683 8.36z"/>
        <path fill="#000" fill-rule="nonzero" d="M620.885 234.333s-8.82 34.271-17.6 37.443c-8.78 3.172-4.902 4.071-4.902 4.071" opacity=".1"/>
        <path fill="#D6D6E3" fill-rule="nonzero" d="M611.715 359.879h9.586v63.024h-9.586z"/>
        <path fill="#000" fill-rule="nonzero" d="M611.715 359.879h9.586v4.672h-9.586z" opacity=".1"/>
        <path fill="#D6D6E3" fill-rule="nonzero" d="M592.536 359.549v1.322a3.1 3.1 0 0 0 3.098 3.099h41.741a3.098 3.098 0 0 0 3.099-3.1v-1.321c0-1.712-1.387-3.1-3.099-3.1h-41.74a3.098 3.098 0 0 0-3.1 3.1z"/>
        <path fill="#000" fill-rule="nonzero" d="M593.25 357.58h46.517a3.085 3.085 0 0 0-2.392-1.13h-41.74c-.925 0-1.8.415-2.386 1.13z" opacity=".1"/>
        <rect width="78.758" height="7.534" x="577.136" y="419.474" fill="#D6D6E3" fill-rule="nonzero" rx="3.63"/>
        <ellipse cx="651.441" cy="431.805" fill="#535461" fill-rule="nonzero" rx="4.796" ry="4.798"/>
        <ellipse cx="581.582" cy="431.805" fill="#535461" fill-rule="nonzero" rx="4.796" ry="4.798"/>
        <ellipse cx="616.511" cy="431.805" fill="#535461" fill-rule="nonzero" rx="4.796" ry="4.798"/>
        <rect width="75.336" height="11.644" x="606.324" y="282.469" fill="#D6D6E3" fill-rule="nonzero" rx="5.61"/>
        <path fill="#000" fill-rule="nonzero" d="M621.301 419.474s-3.766 3.72-9.586 0M681.66 288.41v.918a4.79 4.79 0 0 1-4.79 4.791h-65.756a4.79 4.79 0 0 1-4.79-4.79v-.92h75.336z" opacity=".1"/>
        <path fill="#D6D6E3" fill-rule="nonzero" d="M543.362 299.115h12.956v165.117h-12.956z"/>
        <path fill="#000" fill-rule="nonzero" d="M543.362 299.115h12.956v10.706h-12.956z" opacity=".1"/>
        <path fill="#D6D6E3" fill-rule="nonzero" d="M153.9 364.386h9.586v63.024H153.9z"/>
        <path fill="#000" fill-rule="nonzero" d="M153.9 364.386h9.586v4.672H153.9z" opacity=".1"/>
        <path fill="#D6D6E3" fill-rule="nonzero" d="M182.659 364.062v1.322c0 1.712-1.388 3.1-3.099 3.1h-41.74a3.098 3.098 0 0 1-3.1-3.1v-1.322a3.099 3.099 0 0 1 3.1-3.072h41.74a3.098 3.098 0 0 1 3.099 3.099v-.027z"/>
        <path fill="#000" fill-rule="nonzero" d="M181.952 362.087h-46.524a3.085 3.085 0 0 1 2.391-1.097h41.741c.921-.01 1.798.392 2.392 1.097z" opacity=".1"/>
        <rect width="78.758" height="7.534" x="119.314" y="423.981" fill="#D6D6E3" fill-rule="nonzero" rx="3.63"/>
        <ellipse cx="123.767" cy="436.312" fill="#535461" fill-rule="nonzero" rx="4.796" ry="4.798"/>
        <ellipse cx="193.619" cy="436.312" fill="#535461" fill-rule="nonzero" rx="4.796" ry="4.798"/>
        <ellipse cx="158.69" cy="436.312" fill="#535461" fill-rule="nonzero" rx="4.796" ry="4.798"/>
        <path fill="#000" fill-rule="nonzero" d="M153.9 423.98s3.766 3.721 9.586 0" opacity=".1"/>
        <path stroke="#535461" stroke-width="1.32" d="M398.459 234.254s-10.756-19.554-6.825-36.55a33.823 33.823 0 0 0-1.883-21.306 56.876 56.876 0 0 0-5.04-9.08"/>
        <path fill="#6C63FF" fill-rule="nonzero" d="M387.095 156.586c.562 2.564-2.444 11.016-2.444 11.016s-6.27-6.41-6.838-8.974a4.752 4.752 0 0 1 6.094-5.872 4.751 4.751 0 0 1 3.155 3.83h.033zM397.884 169.095c-.919 2.459-8.034 7.93-8.034 7.93s-1.784-8.789-.859-11.234a4.75 4.75 0 1 1 8.9 3.304h-.007zM402.878 193.427c-2.034 1.66-10.934 2.776-10.934 2.776s2.9-8.485 4.936-10.144a4.75 4.75 0 0 1 7.723 2.916 4.752 4.752 0 0 1-1.725 4.452zM402.515 212.684c-1.724 1.983-10.306 4.587-10.306 4.587s1.42-8.856 3.144-10.832a4.75 4.75 0 1 1 7.155 6.245h.007zM380.218 179.649c2.233 1.381 11.198 1.322 11.198 1.322s-3.964-8.043-6.197-9.424a4.75 4.75 0 0 0-7.359 3.866 4.752 4.752 0 0 0 2.358 4.21v.026zM380.085 202.184c2.544.66 11.086-2.062 11.086-2.062s-6.19-6.49-8.734-7.137a4.752 4.752 0 0 0-2.352 9.199zM382.946 224.097c2.392 1.07 11.278-.159 11.278-.159s-5.008-7.44-7.4-8.511a4.753 4.753 0 0 0-3.878 8.677v-.007z"/>
        <path fill="#FF5538" fill-rule="nonzero" d="M387.095 156.586c.562 2.564-2.444 11.016-2.444 11.016s-6.27-6.41-6.838-8.974a4.752 4.752 0 0 1 6.094-5.872 4.751 4.751 0 0 1 3.155 3.83h.033zM397.884 169.095c-.919 2.459-8.034 7.93-8.034 7.93s-1.784-8.789-.859-11.234a4.75 4.75 0 1 1 8.9 3.304h-.007zM402.878 193.427c-2.034 1.66-10.934 2.776-10.934 2.776s2.9-8.485 4.936-10.144a4.75 4.75 0 0 1 7.723 2.916 4.752 4.752 0 0 1-1.725 4.452zM402.515 212.684c-1.724 1.983-10.306 4.587-10.306 4.587s1.42-8.856 3.144-10.832a4.75 4.75 0 1 1 7.155 6.245h.007zM380.218 179.649c2.233 1.381 11.198 1.322 11.198 1.322s-3.964-8.043-6.197-9.424a4.75 4.75 0 0 0-7.359 3.866 4.752 4.752 0 0 0 2.358 4.21v.026zM380.085 202.184c2.544.66 11.086-2.062 11.086-2.062s-6.19-6.49-8.734-7.137a4.752 4.752 0 0 0-2.352 9.199zM382.946 224.097c2.392 1.07 11.278-.159 11.278-.159s-5.008-7.44-7.4-8.511a4.753 4.753 0 0 0-3.878 8.677v-.007zM394.085 288.489a11.322 11.322 0 0 1-11.304-12.04l3.165-50.158h16.278l3.165 50.158a11.329 11.329 0 0 1-11.304 12.04z"/>
        <path fill="#FF5538" fill-rule="nonzero" d="M55.236 41.911h9.249V80.24h-9.249zM67.128 41.911h9.249V80.24h-9.249zM79.02 41.911h9.249V80.24H79.02zM90.912 41.911h9.249V80.24h-9.249zM114.696 41.911h9.249V80.24h-9.249zM126.588 41.911h9.249V80.24h-9.249z" opacity=".1"/>
        <path fill="#FF5538" fill-rule="nonzero" d="M55.236 49.18h9.249v1.983h-9.249zM55.236 72.97h9.249v1.983h-9.249zM67.128 49.18h9.249v1.983h-9.249zM67.128 72.97h9.249v1.983h-9.249zM79.02 49.18h9.249v1.983H79.02zM79.02 72.97h9.249v1.983H79.02zM90.912 49.18h9.249v1.983h-9.249zM90.912 72.97h9.249v1.983h-9.249zM102.804 49.18h9.249v1.983h-9.249zM102.804 72.97h9.249v1.983h-9.249zM114.696 49.18h9.249v1.983h-9.249zM114.696 72.97h9.249v1.983h-9.249zM126.588 49.18h9.249v1.983h-9.249zM126.588 72.97h9.249v1.983h-9.249z" opacity=".1"/>
        <path fill="#FF5538" fill-rule="nonzero" d="M102.804 41.911h9.249V80.24h-9.249zM136.142 45.621l8.393-3.886 16.098 34.782-8.394 3.887z" opacity=".1"/>
        <path fill="#FF5538" fill-rule="nonzero" d="M139.197 52.224l8.394-3.886.832 1.799-8.393 3.886zM149.183 73.811l8.394-3.886.833 1.799-8.394 3.886z" opacity=".1"/>
        <path fill="url(#b)" fill-rule="nonzero" d="M257.096 437.125l-16.788-10.712c-.086-15.087-.323-85.13 2.815-94.5.81-2.713.855-5.596.132-8.333-2.18-9.523-10.135-16.634-19.774-18.2-9.09-1.48-22.172-3.905-32.703-7.038 9.388-.971 16.424-1.81 16.424-1.81l.185-1.739 6.045-.29v-.258l.575-.033c14.119-.84 44.1-3.635 33.912-12-3.495-2.869-8.053-4.224-12.863-4.68 14.707-3.357 37.691-9.86 27.444-15.972-9.738-5.802-24.65-1.242-33.548 2.465l-.549.231-.099-.8-3.554.714-1.13.225-.053-1.163-49.874 7.705a170.314 170.314 0 0 0-2.034-17.056c1.116-7.441 6.309-18.292 4.479-24.114-2.127-6.76-10.861-8.974-14.535-15.08-.964-1.593-1.922-3.086-2.86-4.395a46.254 46.254 0 0 0-7.037-7.606 32.124 32.124 0 0 1 2.59-11.4 55.232 55.232 0 0 1 3.489-7.005c12.066-2.994 19.72-14.864 17.468-27.094 3.158 1.355 6.996 1.494 8.971-1.15l-.938-.363c.093-.1.185-.198.265-.31-1.923-.734-3.964-1.567-5.47-2.902a6.41 6.41 0 0 1-.959-1.42c-.911-1.851-.806-4.071-1.678-5.948a6.88 6.88 0 0 0-1.71-2.234 11.779 11.779 0 0 0-5.59-3.198c-2.385-.694-4.896-1.044-7.182-1.983a24.275 24.275 0 0 0-25.838-7.269l-.826.284c1.193-5.754-2.442-11.404-8.172-12.701-5.73-1.297-11.443 2.236-12.844 7.943a10.753 10.753 0 0 1 2.88-6.436c-.171.145-.35.284-.515.436a10.786 10.786 0 0 0-.469 15.245l.192.185a10.83 10.83 0 0 0 2.702 2.366 10.784 10.784 0 0 1-7.109-8.835v.66a10.786 10.786 0 0 0 11.463 10.138l.297-.033-.159.218c-6.325 9.306-5.422 21.74 2.18 30.035a11.235 11.235 0 0 0 1.732 2.775c.249.286.516.555.799.807a10.246 10.246 0 0 0 6.91 3.185c.441.524.91 1.029 1.408 1.513a39.34 39.34 0 0 1-1.705 5.445 57.723 57.723 0 0 1-5.232 10.091c-14.27 4.058-15.526 28.298-15.01 29.216.614 1.097-2.128 39.161 8.443 85.142-.436 13.145 7.227 34.88 34.434 29.15 34.024 1.817 45.183 7.031 45.183 7.031s-3.231 59.192 1.38 67.809c2.888 5.399.84 13.33-1.32 18.926a20.8 20.8 0 0 0-1.904 4.388c-.66 1.395-1.143 2.24-1.143 2.24h.463c-1.744 6.06-2.98 13.376-2.98 13.376s41.246 8.373 59.388 2.894c7.042-2.127 7.333-4.097 5.047-5.722a36.738 36.738 0 0 0 4.981-1.09c18.156-5.48-8.522-9.966-8.522-9.966z"/>
        <path fill="#815A5C" fill-rule="nonzero" d="M167.351 156.13c0 13.139-10.648 23.79-23.784 23.79-13.135 0-23.784-10.651-23.784-23.79 0-13.14 10.649-23.79 23.784-23.79a23.78 23.78 0 0 1 16.818 6.968 23.793 23.793 0 0 1 6.966 16.822z"/>
        <path fill="#F8B9BF" fill-rule="nonzero" d="M220.924 267.897l2.412 12.04s2.682-.482 6.653-1.32c13.563-2.876 42.223-9.973 31.124-16.595-9.547-5.69-24.167-1.215-32.888 2.42a77.287 77.287 0 0 0-6.68 3.125c-.403.205-.62.33-.62.33z"/>
        <path fill="#000" fill-rule="nonzero" d="M221.605 271.294l1.73 8.644s2.683-.483 6.654-1.322l-1.764-14.175a77.287 77.287 0 0 0-6.68 3.126l.06 3.727z" opacity=".1"/>
        <path fill="#D9DFE8" fill-rule="nonzero" d="M221.189 280.685l8.284-1.66-1.876-15.139-6.633 1.328z"/>
        <path fill="#000" fill-rule="nonzero" d="M221.189 280.685l3.574-.72-.654-15.378-3.145.627z" opacity=".1"/>
        <path fill="#1A375D" fill-rule="nonzero" d="M144.829 214.944s16.127-8.405 21.987 18.008c5.86 26.414 5.946 38.454 5.946 38.454l50.158-7.751.78 18.232s-53.911 14.823-60.538 13.277c-6.626-1.547-26.743-38.89-26.743-38.89s-18.433-29.045 8.41-41.33z"/>
        <g fill="#000" fill-rule="nonzero" opacity=".1">
            <path d="M220.924 267.897l2.412 12.04s2.682-.482 6.653-1.32c13.563-2.876 42.223-9.973 31.124-16.595-9.547-5.69-24.167-1.215-32.888 2.42a77.287 77.287 0 0 0-6.68 3.125c-.403.205-.62.33-.62.33z"/>
            <path d="M221.605 271.294l1.73 8.644s2.683-.483 6.654-1.322l-1.764-14.175a77.287 77.287 0 0 0-6.68 3.126l.06 3.727z"/>
            <path d="M221.189 280.685l8.284-1.66-1.876-15.139-6.633 1.328z"/>
            <path d="M221.189 280.685l3.574-.72-.654-15.378-3.145.627z"/>
            <path d="M146.15 216.266s16.127-8.406 21.987 18.008c5.86 26.414 5.946 38.454 5.946 38.454l50.158-7.752.78 18.233s-53.91 14.823-60.537 13.276c-6.627-1.546-26.744-38.89-26.744-38.89s-18.433-29.044 8.41-41.329z"/>
        </g>
        <path fill="#FF5538" fill-rule="nonzero" d="M236.06 421.595l19.78 12.556s26.156 4.381 8.365 9.754c-17.792 5.373-58.225-2.842-58.225-2.842s3.072-18.2 6.343-20.611c3.27-2.412 23.737 1.143 23.737 1.143z"/>
        <path fill="#96A2D0" fill-rule="nonzero" d="M162.726 286.91s9.864 5.73 27.603 11.082c10.399 3.139 23.48 5.564 32.518 7.038a23.66 23.66 0 0 1 19.39 17.842c.71 2.683.667 5.509-.125 8.168-3.449 10.323-2.748 95.472-2.748 95.472l-30.946 1.487s4.896-15.47-1.136-23.639c-6.032-8.168 4.07-67.888 4.07-67.888s-10.961-5.114-44.325-6.892c-31.269 6.608-42.507-27.854-37.314-37.133 5.193-9.278 33.013-5.537 33.013-5.537z"/>
        <g fill="#000" fill-rule="nonzero" opacity=".1">
            <path d="M236.06 421.595l19.78 12.556s26.156 4.381 8.365 9.754c-17.792 5.373-58.225-2.842-58.225-2.842s3.072-18.2 6.343-20.611c3.27-2.412 23.737 1.143 23.737 1.143z"/>
            <path d="M162.726 286.91s9.864 5.73 27.603 11.082c10.399 3.139 23.48 5.564 32.518 7.038a23.66 23.66 0 0 1 19.39 17.842c.71 2.683.667 5.509-.125 8.168-3.449 10.323-2.748 95.472-2.748 95.472l-30.946 1.487s4.896-15.47-1.136-23.639c-6.032-8.168 4.07-67.888 4.07-67.888s-10.961-5.114-44.325-6.892c-31.269 6.608-42.507-27.854-37.314-37.133 5.193-9.278 33.013-5.537 33.013-5.537z"/>
        </g>
        <path fill="#FF5538" fill-rule="nonzero" d="M226.203 428.276l19.78 12.556s26.156 4.381 8.365 9.754c-17.792 5.373-58.225-2.842-58.225-2.842s3.072-18.2 6.342-20.611c3.27-2.412 23.738 1.143 23.738 1.143z"/>
        <path fill="#96A2D0" fill-rule="nonzero" d="M157.203 336.254c33.364 1.778 44.324 6.893 44.324 6.893s-3.164 58.035 1.322 66.48c4.79 8.961-4.281 25.046-4.281 25.046l30.945-1.487v-2.802c-.092-14.79-.317-83.464 2.755-92.67.792-2.658.835-5.485.126-8.167a23.667 23.667 0 0 0-19.39-17.843c-9.045-1.467-22.12-3.892-32.519-7.031l-.509-.159c-17.421-5.286-27.087-10.923-27.087-10.923s-20.606-1.428-25.766 7.85c-.66 1.203-3.508 3.569-3.627 5.479-.773 12.78 6.501 35.064 33.707 29.334z"/>
        <path fill="#F8B9BF" fill-rule="nonzero" d="M206.205 282.086l.588 12.265s2.722-.073 6.778-.318c13.841-.826 43.24-3.561 33.252-11.762-8.59-7.052-23.718-4.805-32.882-2.512-3.363.846-5.946 1.692-7.069 2.095-.436.146-.667.232-.667.232z"/>
        <path fill="#F8C7B9" fill-rule="nonzero" d="M127.711 198.615s3.964 3.417 8.88 7.197c5.483 1.493 11.891 2.821 16.47 3.7-1.42-5.386-.159-11.234 1.936-16.382a61.917 61.917 0 0 1 8.958-14.875l-27.55-9.96c1.95 5.651.661 11.962-1.433 17.361a57.398 57.398 0 0 1-7.26 12.96z"/>
        <path fill="#000" fill-rule="nonzero" d="M206.37 285.542l.423 8.809s2.722-.073 6.778-.318l.37-14.28c-3.363.846-5.946 1.692-7.069 2.095l-.502 3.694z" opacity=".1"/>
        <path fill="#D9DFE8" fill-rule="nonzero" d="M204.56 294.767l8.436-.403.397-15.252-6.752.324z"/>
        <path fill="#1A375D" fill-rule="nonzero" d="M124.097 310.488c17.838 18.55 51.103-3.495 60.048-10.025 1.454-1.064 2.266-1.718 2.266-1.718-3.303-3.363-8.588-6.476-10.617-14.902a183.096 183.096 0 0 1-3.924-26.116c-.548-6.972 6.653-20.248 4.572-26.87-2.081-6.621-10.65-8.795-14.25-14.79-.946-1.559-1.884-3.026-2.809-4.308-6.646-9.252-18.227-15.483-18.227-15.483-24.676-8.426-26.612 26.823-25.998 27.92.615 1.097-2.206 39.954 8.94 86.292z"/>
        <path fill="#000" fill-rule="nonzero" d="M123.912 259.723s14.33 39.928 20.653 42.445c3.62 1.441 23.367-.112 39.58-1.705 1.454-1.064 2.266-1.718 2.266-1.718-3.303-3.363-5.992-10.296-8.014-18.715l-20.804.073s1.685-11.895-.178-38.917c-1.863-27.021-19.06-21.08-19.06-21.08-28.363 8.134-14.443 39.617-14.443 39.617zM204.56 294.767l3.64-.172 1.645-15.311-3.204.152z" opacity=".1"/>
        <path fill="#1A375D" fill-rule="nonzero" d="M138.843 218.387s17.178-5.9 19.06 21.081c1.883 26.982.199 38.917.199 38.917l50.752-.185-1.949 18.146s-55.496 6.609-61.838 4.104c-6.343-2.504-20.66-42.439-20.66-42.439s-13.933-31.489 14.436-39.624z"/>
        <path fill="#000" fill-rule="nonzero" d="M139.47 178.598c.92-3.965-3.302-4.09-4.624-7.93l27.563 9.913a61.723 61.723 0 0 0-5.536 8.003 23.19 23.19 0 0 1-4.48.66c-6.699.33-8.489-6.297-12.922-10.646z" opacity=".1"/>
        <ellipse cx="152.857" cy="163.853" fill="#F8C7B9" fill-rule="nonzero" rx="23.097" ry="23.103" transform="rotate(-2.75 152.857 163.853)"/>
        <path fill="#000" fill-rule="nonzero" d="M140.924 235.523s7.307 34.621 15.936 38.157c8.628 3.535 4.717 4.288 4.717 4.288M171.038 255.077s-6.105 1.91-13.214-7.216" opacity=".1"/>
        <ellipse cx="125.068" cy="131.679" fill="#815A5C" fill-rule="nonzero" rx="10.571" ry="10.573"/>
        <path fill="#815A5C" fill-rule="nonzero" d="M117.643 137.263a10.575 10.575 0 0 1 0-14.466c-.172.139-.344.278-.503.43-4.254 4-4.461 10.692-.462 14.948 3.999 4.255 10.69 4.462 14.944.462.165-.152.31-.317.456-.475a10.569 10.569 0 0 1-14.435-.9z"/>
        <path fill="#815A5C" fill-rule="nonzero" d="M123.681 141.254a10.571 10.571 0 0 1-11.126-9.251v.66a10.57 10.57 0 1 0 16.398 8.148c3.147-2.089 4.94-5.699 4.704-9.47 0-.224-.046-.435-.073-.66a10.572 10.572 0 0 1-9.903 10.573z"/>
        <path fill="#000" fill-rule="nonzero" d="M161.372 140.871c2.464 1.216 5.285 1.553 7.928 2.32 2.643.766 5.338 2.167 6.501 4.665.852 1.837.753 4.011 1.645 5.829 1.282 2.643 4.241 3.859 6.963 4.897-2.338 3.138-7.36 2.286-10.636.152-3.277-2.135-6.098-5.287-9.91-6.113a9.301 9.301 0 0 0-9.785 4.355c-1.044 1.83-1.414 3.965-1.929 6-1.321 5.366-3.964 10.706-8.589 13.752-4.624 3.047-11.515 3.027-15.142-1.143-2.114-2.432-2.821-5.743-3.449-8.902a18.092 18.092 0 0 1-.508-4.5c.211-3.793 2.735-7.025 5.285-9.84 3.006-3.304 6.204-6.476 9.401-9.628 2.762-2.723 5.946-7.336 10.108-7.66 4.797-.383 8.186 3.893 12.117 5.816z" opacity=".1"/>
        <path fill="#815A5C" fill-rule="nonzero" d="M160.711 140.21c2.465 1.216 5.286 1.553 7.928 2.32 2.643.766 5.339 2.167 6.501 4.665.853 1.837.753 4.012 1.645 5.829 1.282 2.643 4.242 3.86 6.964 4.897-2.339 3.139-7.36 2.286-10.637.152-3.277-2.135-6.098-5.287-9.91-6.113a9.301 9.301 0 0 0-9.784 4.355c-1.044 1.83-1.414 3.965-1.93 6-1.32 5.366-3.964 10.706-8.588 13.752-4.625 3.047-11.516 3.027-15.143-1.143-2.114-2.432-2.82-5.743-3.448-8.901a18.092 18.092 0 0 1-.51-4.5c.212-3.794 2.736-7.025 5.286-9.84 3.006-3.305 6.204-6.477 9.402-9.63 2.761-2.722 5.946-7.334 10.108-7.658 4.796-.383 8.185 3.892 12.116 5.815z"/>
        <rect width="75.336" height="11.644" x="93.541" y="286.976" fill="#D6D6E3" fill-rule="nonzero" rx="5.61"/>
        <path fill="#000" fill-rule="nonzero" d="M93.541 292.923v.919a4.79 4.79 0 0 0 4.79 4.79h65.756a4.79 4.79 0 0 0 4.79-4.79v-.919H93.541z" opacity=".1"/>
        <path fill="#D6D6E3" fill-rule="nonzero" d="M226.21 299.115h12.956v165.097H226.21z"/>
        <path fill="#000" fill-rule="nonzero" d="M226.21 299.115h12.956v10.706H226.21z" opacity=".1"/>
        <path fill="#D6D6E3" fill-rule="nonzero" d="M220.013 287.28h342.502v21.411H220.013z"/>
    </g>
</svg>
