<svg xmlns="http://www.w3.org/2000/svg" width="75" height="75" viewBox="0 0 75 75">
    <g fill="none" fill-rule="nonzero">
        <path fill="#FF760F" d="M63.281 14.648a1.465 1.465 0 1 0 .001 2.931 1.465 1.465 0 0 0 0-2.93zM11.719 14.648a1.465 1.465 0 1 0 0 2.931 1.465 1.465 0 0 0 0-2.93z"/>
        <path fill="#FF5538" d="M73.535 32.227h-1.752a33.274 33.274 0 0 0-3.947-11.969 1.465 1.465 0 0 0-2.56 1.425 30.36 30.36 0 0 1 3.553 10.544h-1.153c-.81 0-1.465.655-1.465 1.464v5.86c0 .809.656 1.465 1.465 1.465h5.86c.808 0 1.464-.656 1.464-1.465v-5.86c0-.809-.656-1.464-1.465-1.464zm-1.465 5.859h-2.93v-2.93H72.07v2.93z"/>
        <path fill="#FF760F" d="M53.61 42.864l-.003-.068a1.465 1.465 0 0 0-.011-.092l-.009-.056a1.507 1.507 0 0 0-.025-.106l-.01-.04a1.44 1.44 0 0 0-.045-.129l-.005-.014a1.446 1.446 0 0 0-.068-.142L38.785 15.41a1.465 1.465 0 0 0-2.57 0L21.566 42.217a1.446 1.446 0 0 0-.068.142l-.005.014a1.44 1.44 0 0 0-.045.13l-.01.039c-.01.035-.018.07-.025.106l-.009.056-.011.092-.003.069c-.001.018-.003.036-.003.055l.001.028a1.354 1.354 0 0 0 .02.217 1.42 1.42 0 0 0 .064.244l.01.028 5.282 14c-.424.21-.816.489-1.16.833a4.366 4.366 0 0 0-1.288 3.107 4.402 4.402 0 0 0 2.93 4.143v8.015c0 .81.656 1.465 1.465 1.465h17.578c.81 0 1.465-.656 1.465-1.465v-8.013a4.38 4.38 0 0 0 1.642-1.038 4.366 4.366 0 0 0 1.288-3.107c0-1.725-1-3.22-2.449-3.939l5.284-14 .009-.029a1.483 1.483 0 0 0 .063-.244l.01-.06c.003-.03.006-.059.007-.088.002-.023.004-.046.004-.069l.001-.028c0-.019-.002-.037-.003-.056zM37.5 41.455c.808 0 1.465.657 1.465 1.465s-.657 1.465-1.465 1.465a1.467 1.467 0 0 1-1.465-1.465c0-.808.657-1.465 1.465-1.465zm7.324 30.615H30.176v-6.299h14.648v6.3zm2.5-9.658c-.276.277-.644.43-1.035.43H28.711a1.467 1.467 0 0 1-1.036-2.5c.277-.277.645-.43 1.036-.43H46.294a1.466 1.466 0 0 1 1.03 2.5zm-2.048-5.43H29.724L24.97 44.385h3.74a1.465 1.465 0 1 0 0-2.93h-3.389L36.035 21.85v16.928a4.401 4.401 0 0 0-2.93 4.143 4.4 4.4 0 0 0 4.395 4.394 4.4 4.4 0 0 0 4.395-4.394 4.402 4.402 0 0 0-2.93-4.143V21.85l10.714 19.606h-3.39a1.465 1.465 0 1 0 0 2.93h3.741l-4.754 12.597z"/>
        <path fill="#FF5538" d="M9.156 19.69a1.465 1.465 0 0 0-1.992.568 33.274 33.274 0 0 0-3.947 11.969H1.465c-.81 0-1.465.655-1.465 1.464v5.86c0 .809.656 1.465 1.465 1.465h5.86c.808 0 1.464-.656 1.464-1.465v-5.86c0-.809-.656-1.464-1.465-1.464H6.171a30.363 30.363 0 0 1 3.552-10.544 1.465 1.465 0 0 0-.567-1.992zM5.859 38.087H2.93v-2.93H5.86v2.93zM70.605 0a4.402 4.402 0 0 0-4.142 2.93H41.895V1.465C41.895.655 41.239 0 40.43 0h-5.86c-.809 0-1.465.656-1.465 1.465V2.93H8.537A4.402 4.402 0 0 0 4.395 0 4.4 4.4 0 0 0 0 4.395a4.4 4.4 0 0 0 4.395 4.394 4.402 4.402 0 0 0 4.142-2.93h14.727c-3.125 1.308-5.99 3.005-8.348 4.993a1.465 1.465 0 0 0 1.888 2.24c4.203-3.543 10.2-6.073 16.301-6.922v1.154c0 .81.656 1.465 1.465 1.465h5.86c.809 0 1.465-.656 1.465-1.465V6.17c6.1.849 12.098 3.379 16.301 6.922a1.461 1.461 0 0 0 2.064-.176 1.464 1.464 0 0 0-.176-2.064c-2.358-1.988-5.223-3.685-8.348-4.993h14.727a4.401 4.401 0 0 0 4.142 2.93A4.4 4.4 0 0 0 75 4.395 4.4 4.4 0 0 0 70.605 0zM4.395 5.86A1.467 1.467 0 0 1 2.93 4.394c0-.808.657-1.465 1.465-1.465.807 0 1.464.657 1.464 1.465 0 .807-.657 1.464-1.464 1.464zm34.57-1.465v1.464h-2.93V2.93h2.93v1.465zm31.64 1.464a1.467 1.467 0 0 1-1.464-1.464c0-.808.657-1.465 1.464-1.465.808 0 1.465.657 1.465 1.465 0 .807-.657 1.464-1.465 1.464z"/>
    </g>
</svg>
