<svg xmlns="http://www.w3.org/2000/svg" width="75" height="75" viewBox="0 0 75 75">
    <g fill="none" fill-rule="evenodd" transform="translate(0 1)">
        <path fill="#FF5538" fill-rule="nonzero" stroke="#FF5538" stroke-width=".5" d="M29.591 53.137c-.283 0-.568-.098-.801-.296l-8.013-6.823a1.238 1.238 0 0 1 0-1.885l8.013-6.823a1.238 1.238 0 1 1 1.605 1.885l-6.905 5.88 6.905 5.88a1.238 1.238 0 0 1-.804 2.182zM45.409 53.137a1.238 1.238 0 0 1-.804-2.181l6.905-5.88-6.905-5.88a1.238 1.238 0 0 1 1.605-1.886l8.013 6.823a1.238 1.238 0 0 1 0 1.885l-8.013 6.823a1.233 1.233 0 0 1-.801.296zM34.664 58.254a1.239 1.239 0 0 1-1.213-1.494l4.993-23.709a1.238 1.238 0 0 1 2.423.51l-4.994 23.71a1.238 1.238 0 0 1-1.21.983z"/>
        <path fill="#FF760F" fill-rule="nonzero" d="M73.762 19.8H1.238a1.238 1.238 0 1 1 0-2.476h72.524a1.238 1.238 0 0 1 0 2.476z"/>
        <path fill="#FF5538" fill-rule="nonzero" d="M21.156 13.875a3.924 3.924 0 0 1-3.919-3.919 3.923 3.923 0 0 1 3.919-3.918 3.923 3.923 0 0 1 3.918 3.918 3.923 3.923 0 0 1-3.918 3.919zm0-5.36c-.795 0-1.442.646-1.442 1.441 0 .796.647 1.443 1.442 1.443a1.443 1.443 0 0 0 0-2.884zM9.117 13.837a3.923 3.923 0 0 1-3.919-3.919A3.923 3.923 0 0 1 9.117 6a3.923 3.923 0 0 1 3.918 3.918 3.923 3.923 0 0 1-3.918 3.919zm0-5.36c-.795 0-1.442.647-1.442 1.441 0 .796.647 1.442 1.442 1.442.795 0 1.442-.646 1.442-1.442 0-.794-.647-1.442-1.442-1.442zM33.195 13.912a3.923 3.923 0 0 1-3.917-3.918 3.923 3.923 0 0 1 3.917-3.918 3.923 3.923 0 0 1 3.919 3.918 3.923 3.923 0 0 1-3.919 3.918zm0-5.36c-.794 0-1.441.646-1.441 1.442 0 .795.647 1.442 1.441 1.442.796 0 1.442-.647 1.442-1.442 0-.796-.646-1.442-1.442-1.442z"/>
        <rect width="73" height="73" x="1" stroke="#FF760F" stroke-width="2.5" rx="6"/>
    </g>
</svg>
