<svg xmlns="http://www.w3.org/2000/svg" width="60" height="60" viewBox="0 0 60 60">
    <g fill="none" fill-rule="nonzero">
        <path fill="#FF5538" d="M29.4 50.619a1.179 1.179 0 0 0-.827-.343c-.307 0-.61.125-.827.343-.217.217-.342.519-.342.826 0 .31.125.61.342.827.218.22.52.343.827.343a1.173 1.173 0 0 0 1.17-1.17c0-.307-.125-.609-.343-.826z"/>
        <path fill="#FF760F" d="M34.969 39.83v-8.607a1.17 1.17 0 0 0-1.607-1.085L13.21 38.255H6.717A6.725 6.725 0 0 0 0 44.972a6.725 6.725 0 0 0 6.718 6.718h.773v7.023c0 .646.523 1.17 1.17 1.17h4.774a1.17 1.17 0 0 0 1.17-1.17v-6.459l18.758 7.545a1.169 1.169 0 0 0 1.606-1.085v-8.606a5.28 5.28 0 0 0 4.102-5.14 5.28 5.28 0 0 0-4.102-5.139zM12.265 57.543H9.83V51.69h2.435v5.854zm0-8.193H6.718a4.383 4.383 0 0 1-4.379-4.379 4.383 4.383 0 0 1 4.379-4.378h5.548v8.757zm20.365 7.631l-18.025-7.25v-9.518l12.799-5.154v11.607a1.17 1.17 0 0 0 2.339 0v-12.55l2.887-1.162v24.027zm2.339-9.325V42.28a2.936 2.936 0 0 1 1.763 2.688 2.936 2.936 0 0 1-1.763 2.689z"/>
        <path fill="#FF5538" d="M50.228 43.833h-6.622a1.17 1.17 0 0 0 0 2.34h6.622a1.17 1.17 0 0 0 0-2.34zM44.798 35.263a1.17 1.17 0 0 0-1.654 0l-2.285 2.284a1.17 1.17 0 0 0 1.654 1.654l2.285-2.284a1.17 1.17 0 0 0 0-1.654zM44.884 52.98l-2.361-2.361a1.17 1.17 0 0 0-1.654 1.654l2.36 2.36a1.166 1.166 0 0 0 1.655 0 1.17 1.17 0 0 0 0-1.653z"/>
        <path fill="#FF760F" d="M55.205 0H33.45a4.684 4.684 0 0 0-4.678 4.678v.468H9.122a2.81 2.81 0 0 0-2.806 2.807v18.48a2.81 2.81 0 0 0 2.807 2.807h1.208v3.587a1.17 1.17 0 0 0 1.997.827l4.414-4.414h23.232a2.81 2.81 0 0 0 2.807-2.807v-3.509h12.424a4.684 4.684 0 0 0 4.678-4.678V4.678A4.684 4.684 0 0 0 55.205 0zM40.442 26.433c0 .258-.21.468-.468.468H16.257c-.31 0-.607.123-.827.342l-2.76 2.76V28.07a1.17 1.17 0 0 0-1.169-1.17H9.123a.468.468 0 0 1-.468-.467V7.953c0-.258.21-.468.468-.468h19.649v10.76a4.684 4.684 0 0 0 4.678 4.679h6.992v3.509zm17.102-8.187c0 1.29-1.05 2.339-2.34 2.339H33.45c-1.29 0-2.339-1.05-2.339-2.34V4.679c0-1.29 1.05-2.339 2.34-2.339h21.754c1.29 0 2.339 1.05 2.339 2.34v13.567z"/>
        <path fill="#FF5538" d="M49.026 10.45l-8.004-4.622a1.17 1.17 0 0 0-1.755 1.012v9.243a1.17 1.17 0 0 0 1.755 1.013l8.004-4.621a1.17 1.17 0 0 0 0-2.026zm-7.42 3.608V8.866l4.496 2.596-4.495 2.596zM25.09 12.28H13.392a1.17 1.17 0 0 0 0 2.34H25.09a1.17 1.17 0 0 0 0-2.34zM25.916 19.173a1.178 1.178 0 0 0-.827-.343c-.308 0-.61.125-.827.343-.217.218-.343.52-.343.827 0 .308.126.61.343.827.218.217.52.343.827.343.309 0 .61-.126.827-.343.217-.218.343-.52.343-.827 0-.308-.126-.61-.343-.827zM20.702 18.83h-7.309a1.17 1.17 0 0 0 0 2.34h7.309a1.17 1.17 0 0 0 0-2.34z"/>
    </g>
</svg>
