<svg xmlns="http://www.w3.org/2000/svg" width="851" height="504" viewBox="0 0 851 504">
    <defs>
        <linearGradient id="a" x1="50.014%" x2="50.014%" y1="99.996%" y2="0%">
            <stop offset="0%" stop-color="gray" stop-opacity=".25"/>
            <stop offset="54%" stop-color="gray" stop-opacity=".12"/>
            <stop offset="100%" stop-color="gray" stop-opacity=".1"/>
        </linearGradient>
    </defs>
    <g fill="none" fill-rule="evenodd" transform="matrix(-1 0 0 1 826 0)">
        <path fill="#FFF5F3" fill-rule="nonzero" d="M479.924 76.006c-52.957-1.527-103.391-15.788-151.52-31.393-48.127-15.605-95.904-32.865-147.591-41.13-33.243-5.317-71.258-6.068-98.044 8.793-25.78 14.302-34.105 38.996-38.582 61.916-3.376 17.235-5.356 35.382 3.879 51.515 6.385 11.192 17.79 20.617 25.66 31.345 27.376 37.342 8.03 83.38-21.646 119.835-13.92 17.1-30.066 33.416-40.809 51.619C.53 346.709-4.42 367.582 4.958 386.128c9.314 18.387 31.51 32.225 55.559 41.954 48.838 19.746 106.392 25.398 162.51 28.604 124.222 7.083 249.115 3.997 373.673.943 46.092-1.135 92.392-2.286 137.743-8.234 25.181-3.301 51.177-8.538 69.438-21.185 23.21-16.052 28.957-43.24 13.409-63.37-26.083-33.768-98.172-42.154-116.441-78.392-10.04-19.946.271-42.17 14.853-60.669 31.288-39.683 83.733-74.499 86.495-119.858 1.892-31.178-23.314-62.355-62.295-77.097-40.857-15.453-97.517-13.51-127.702 12.071-30.976 26.334-85.521 36.494-132.276 35.111z"/>
        <ellipse cx="251.5" cy="463" fill="#FF5538" opacity=".2" rx="167.5" ry="17"/>
        <path stroke="#535461" stroke-width="2" d="M98 461s-7.421-42.163-34.967-63.057c-11.557-8.769-20.014-20.692-23.708-34.272A103.66 103.66 0 0 1 36 344"/>
        <path fill="#DA2E10" fill-rule="nonzero" d="M18.948 332.204C21.202 336.766 36.26 346 36.26 346s1.893-17.25-.377-21.818c-2.27-4.568-7.887-6.473-12.574-4.26-4.687 2.215-6.631 7.715-4.36 12.282zM16.566 362.656C21.06 365.223 39 364.995 39 364.995s-8.094-15.129-12.57-17.696c-4.477-2.567-10.33-1.212-13.049 3.028-2.719 4.24-1.302 9.762 3.185 12.329zM39.385 404c5.246.074 20.615-8.7 20.615-8.7S44.927 386.08 39.675 386c-5.252-.08-9.57 3.89-9.673 8.86-.103 4.968 4.13 9.047 9.383 9.139zM64.848 433.907C70.07 434.829 87 428.61 87 428.61s-13.38-11.553-18.596-12.458c-5.215-.905-10.258 2.29-11.237 7.214-.98 4.923 2.455 9.624 7.681 10.54zM59.426 357.418C57.628 362.225 43.445 373 43.445 373s-3.756-17.09-1.958-21.897c1.798-4.806 7.272-7.289 12.22-5.546 4.949 1.743 7.517 7.06 5.72 11.861zM84.04 388.819C80.845 392.867 64 399 64 399s1.712-17.32 4.884-21.361c3.324-4.068 9.146-4.831 13.364-1.753 1.996 1.408 3.326 3.607 3.666 6.064a9.029 9.029 0 0 1-1.874 6.869zM109.88 427.089C107.369 431.464 91.39 440 91.39 440s-1.403-16.828 1.11-21.204c2.513-4.375 8.438-6.064 13.241-3.774 4.803 2.29 6.647 7.69 4.14 12.067z"/>
        <path stroke="#535461" stroke-width="2" d="M97.124 460s11.48-41.474-5.074-71.204c-6.946-12.473-9.626-26.644-7.14-40.504 1.195-6.59 3.032-13.05 5.486-19.292"/>
        <path fill="#FF5538" d="M80.006 310.517C80.188 315.59 90.204 330 90.204 330s8.975-15.04 8.793-20.119c-.182-5.08-4.578-9.05-9.822-8.875-5.244.175-9.357 4.432-9.169 9.51zM65.685 338.209C68.66 342.299 85 349 85 349s-.902-17.035-3.877-21.13c-3.12-4.115-8.833-5.09-13.106-2.24a8.727 8.727 0 0 0-3.868 5.772 8.836 8.836 0 0 0 1.536 6.807zM67.502 386.09c4.751 2.072 22.498-.04 22.498-.04s-9.803-14.15-14.555-16.223c-4.751-2.073-10.376-.114-12.57 4.378-2.194 4.491-.119 9.812 4.627 11.884zM78.22 421.434C82.652 424.253 101 425 101 425s-7.325-15.583-11.75-18.396c-4.425-2.824-10.322-1.83-13.528 2.282a8.555 8.555 0 0 0-1.558 6.81 8.693 8.693 0 0 0 4.056 5.738zM105.321 350.25C101.633 353.837 84 358 84 358s3.74-16.648 7.422-20.234c3.779-3.59 9.706-3.698 13.617-.251a8.626 8.626 0 0 1 2.959 6.306 8.62 8.62 0 0 1-2.677 6.43zM116.961 391.338C112.268 393.793 94 392.803 94 392.803s8.951-15.233 13.645-17.67c4.693-2.438 10.587-.815 13.157 3.661 2.57 4.476.876 10.089-3.84 12.544zM122.346 434.005C118.157 437.09 100 439 100 439s6.118-15.969 10.307-19.052c4.223-3.077 10.146-2.446 13.598 1.45a8.536 8.536 0 0 1 2.03 6.639 8.614 8.614 0 0 1-3.589 5.968z"/>
        <path fill="url(#a)" fill-rule="nonzero" d="M572.022 217.848c.346-.947-2.245-6.2-2.245-6.46 0-.26-2.677-3.189-2.677-4.824 0-1.635-3.546-5.165-3.546-5.165s-4.75-1.982-5.268-6.287c-.518-4.304-5.693-4.397-5.705-4.397 0 0 0-.393.035-.988 0-1.34-.04-3.733-.64-5.038a5.1 5.1 0 0 0-2.941-2.502s-.518-3.357-1.555-4.391a4.959 4.959 0 0 1-1.214-4.646c.518-1.635-.691-5.778-3.201-6.356-2.51-.578-5.354-1.548-5.354-1.548s-.282.052-.69.11l-.346-.11c-.602.111-1.21.186-1.82.225a2.211 2.211 0 0 1-1.462-.485c-.87-.948-7.87-2.756-9.165-2.756-1.295 0-5.014-1.734-5.014-1.734l-3.708-2.842c-1.042-.798-2.97-4.045-3.252-4.501l-.035-.064a15.64 15.64 0 0 1-.783-2.265 20.474 20.474 0 0 0 3.213-4.432c.092-.167.172-.34.253-.508a2.06 2.06 0 0 0 .576-.093c.075 0 .15-.057.224-.086a3.781 3.781 0 0 0 1.837-2.202c.063-.185.12-.375.167-.577 0-.064 0-.133.04-.197.04-.063.057-.26.08-.393.024-.133.03-.15.04-.22.012-.069.041-.26.058-.392.018-.133 0-.145 0-.214 0-.168.04-.33.064-.491.058-.611.148-1.219.27-1.82.518-2.311 1.917-4.31 2.913-6.472a12.362 12.362 0 0 0 .737-1.988l.087-.323c.063-.254.12-.514.172-.774 0-.116.046-.231.064-.347.057-.358.109-.716.138-1.08a13.438 13.438 0 0 0-.858-6.073c-.65-1.618-1.612-3.074-2.268-4.692-.996-2.45-1.255-5.2-2.47-7.557-2.032-3.918-6.822-5.876-10.76-4.403-1.882.7-3.511 2.063-5.417 2.675-2.556.815-5.285.202-7.927-.167-2.643-.37-5.567-.399-7.691 1.334-2.447 1.994-3.12 5.744-5.418 7.934-.961.918-2.164 1.508-3.183 2.357a5.2 5.2 0 0 0-1.595 2.19c0 .063-.04.121-.057.185a3.023 3.023 0 0 0-.104.48c-.012.086 0 .12 0 .178a3.091 3.091 0 0 0 0 .463c.016.145.041.29.075.433v.121c0 .04.069.237.11.359a.325.325 0 0 0 0 .069c.045.133.097.26.149.393l.086.196.07.162c.337.636.605 1.306.8 2 .107.438.08.899-.075 1.322-.235.48-.562.908-.962 1.26a17.922 17.922 0 0 0-3.897 6.27c-.098.265-.196.53-.282.808l.12.029c.247.076.5.132.755.167.144 0 .288.035.437.047a6.74 6.74 0 0 0 1.762-.139c.144-.029.293-.064.437-.104.593-.164 1.17-.379 1.727-.641V136.69c.013 7.77 4.402 14.865 11.336 18.322 0 .185.052.376.075.578.023.202.04.312.057.468l-.23-.226s-1.56-.774-3.028 1.462c-1.468 2.236-4.232 3.276-4.232 3.276s-15.727 2.497-16.332 4.565l-7.346.428s-2.596.346-2.878 5.778c-.282 5.43-1.64 5.945-1.64 5.945s-3.023 5.339-2.764 8.09c.259 2.75-2.303 4.136-2.303 4.136l-.345 4.906s-2.879-.428-3.633 2.93c-.754 3.356-2.159 4.91-2.159 4.91s-4.755 3.964-5.014 7.321l-2.936 1.809s-6.828-1.549-8.382-4.305l-.478-.45a.434.434 0 0 1-.04-.07.162.162 0 0 0 0 .035c-1.025-.971-3.19-2.993-2.879-2.531.202.433.25.922.138 1.387l-.506-.578-1.359-1.514s-11.036-10.4-17.518-11.198c-.086-.167-.501-1.802-1.606-.78a9.058 9.058 0 0 0-2.93 6.631 9.059 9.059 0 0 0 2.866 6.659l10.334 9.69.265.196 2.222 2.889c-.374.901-.69 1.774-.95 2.57 0 0 0 .053-.029.076-.051.173-.11.335-.16.497l-.053.173c-.046.162-.098.324-.144.474-.046.15-.051.19-.08.283-.029.093 0 .11-.046.162a36.537 36.537 0 0 0-.484 1.9l-.576-.178.576.242v.093l-.034.179.53.231c3.027 1.323 18.14 7.974 18.916 8.985.864 1.115 6.563 4.391 11.75 1.635 5.187-2.756 6.333-6.98 6.333-6.98s5.008-6.974 5.181-8.008c.173-1.034 4.065-2.242 4.065-2.242s.345 11.556-1.641 15.762c-1.986 4.207-5.705 22.916-5.705 22.916a2.73 2.73 0 0 1 .737-.046c-.139.676-.22 1.08-.22 1.08.304-.055.614-.055.916 0-.276 2.126-1.865 11.995-1.865 11.995s-.518 4.478-1.382 6.027c-.863 1.548-.95 9.649-.95 9.649l-1.381 5.853c.157.346.332.683.524 1.011 0 0 1.485 3.305 3.978 5.16-.114.92-.349 1.822-.697 2.68a9.316 9.316 0 0 0-.69 4.132s-1.469 6.633-1.296 8.528c.173 1.895-.95 6.547-.95 6.547l-1.606 14.942s-1.036 13.006-.518 16.542c.518 3.536-.351 8.349-.351 8.349s1.036 10.25.777 11.371c-.26 1.121-1.555 5.94-.777 8.615.777 2.675.35 9.99.35 9.99s.519 9.644 1.118 12.746c.598 3.103-.173 7.067-.173 7.067s-.576 6.627-.864 6.627c-.288 0-2.504 4.565 2.073 9.048 4.577 4.484 1.727 3.785 1.727 3.785s-3.627-1.809-3.2 1.895c.414 3.525.983 2.606 1.035 2.508l-.863 2.831.575.087-.5.577a13.436 13.436 0 0 1-1.727 1.815c-1.042.774-1.152 2.496-1.152 2.496s-6.39 6.98-12.354 10.51c-3.138 1.86-5.843 3.432-7.024 4.732-1.065 1.156-.892 2.115 1.319 2.849 4.669 1.548 12.872 2.31 18.75.346a21.903 21.903 0 0 0 9.16-5.945s3.718-1.895 7.35-1.208c3.633.688 10.887-4.044 10.887-4.044l-.132-1.225-.386-3.52a2.775 2.775 0 0 1-.604-2.149 11.196 11.196 0 0 0-.306-3.097c-.057-.34-.126-.681-.19-1l.662-.12s-.857-4.397.697-5.258c1.554-.861 1.117-12.134 1.117-12.134s-1.98-2.583-3.022-3.01c-1.042-.428-.087-5.778.092-6.466.178-.688 1.554-14.04 1.554-14.04s-.518-4.218.173-6.027c.69-1.808-.83-8.742-.83-8.742s-.517-.86.438-1.895c.956-1.034.576-10.25.576-10.25s-.08-4.651-.08-5.86c0-1.207 1.036-5.598 1.985-7.06.95-1.462.346-6.032.346-6.032l.052-.34c0-.134.046-.296.08-.492l.075-.456a65.262 65.262 0 0 1 1.71-7.518c1.151-3.617 2.418-9.99 2.418-9.99l8.06-21.031.092-.249s3.713 6.893 3.713 13.29c0 0 .95 7.667.69 9.735-.258 2.069.766 11.747.766 11.747s1.123 13.954 1.123 14.56c0 .607 1.382 11.371 2.25 13.007.87 1.635-.868 6.633-1.387 7.147-.518.514.173 13.18.173 13.18s-1.295 9.99-1.554 12.058c-.26 2.069-1.295 9.996-.432 13.093.864 3.097.518 3.53.518 3.53s3.115 3.19 1.295 3.467a4.751 4.751 0 0 0-3.146 2.354 4.782 4.782 0 0 0-.308 3.927 80.624 80.624 0 0 0 3.806 9.244s.535-.12 1.427-.3v1.023l.104 5.13s.576 4.912.26 6.033c-.254.82-.577 4.68-.767 6.696a85.762 85.762 0 0 0-.097 1.225s0 4.565 9.59 3.19c9.592-1.375 11.319-5.166 11.319-5.166s0-.179.069-.474c.144-.872.455-2.721.708-3.75.345-1.38-2.764-7.58-2.764-7.58s-.518-4.218-1.387-5.166a4.586 4.586 0 0 1-.69-1.808 16.5 16.5 0 0 1-.208-1.063c.215.027.428.066.639.115 0 0-.518-3.016 1.474-3.963 1.992-.948 1.468-2.924 1.209-3.79-.26-.867.777-5.686.777-5.686a2.81 2.81 0 0 1 .69-2.75c1.215-1.214 2.16-9.65 2.16-9.65l.172-32.559s.61-5.778-.08-8.089c-.691-2.311-1.388-6.8-.438-8.008.95-1.208.087-6.8.087-6.8s0-11.805 1.3-14.729c1.302-2.923.864-21.448.864-21.448l.34-12.133s2.826-2.681 2.159-16.658c3.01-.19 6.407-.3 6.908.115.95.78 7.087 4.738 10.714 2.242.777-.346 4.317-3.357 4.317-3.357l-1.52-25.827c.95 1.438 1.526 2.398 1.526 2.398 0-3.617 10.195-15.335 10.195-15.335s9.505-12.313 11.578-13.78c2.072-1.468 6.137-9.216 6.137-9.216a37.413 37.413 0 0 1 2.078-4.305c.984-1.589-2.13-5.726-1.785-6.674zm-22.302 9.037c-2.59.26-8.06 6.206-8.123 7.512-.04.681-.616 1.594-1.152 2.31-.04-.52-.086-1.05-.126-1.588-.61-7.61-1.272-16.883-.973-17.785.524-1.548.345-8.522.345-8.522l.092-.133c1.727 5.402 7.156 11.775 7.156 11.775s.95 2.756 2.073 2.843c1.122.087.708 3.588.708 3.588z"/>
        <path fill="#65617D" fill-rule="nonzero" d="M411 224.903s3.195-16.815 13.482-16.903L432 223.514l-5.012 3.469s-10.888.346-15.988-2.08z"/>
        <path fill="#000" fill-rule="nonzero" d="M432 223.51l-5.012 3.472s-7.664.247-13.143-1.108a15.683 15.683 0 0 1-2.845-.973s0-.094.058-.27v-.065a38.084 38.084 0 0 1 1.946-6.18 44.54 44.54 0 0 1 1.063-2.317c1.507-2.932 3.621-5.758 6.519-7.172a8.834 8.834 0 0 1 3.429-.897H424.47l.164.346 2.541 5.243L432 223.51z" opacity=".1"/>
        <path fill="#65617D" fill-rule="nonzero" d="M515.777 292.237s10.696-1.018 11.633-.253c.936.765 7.013 4.677 10.61 2.21 3.595-2.469 1.196-11.063 1.196-11.403 0-.34-.341-12.513-.341-12.513l-6.418-8.594-8.037-15.062L508 245l.428 23.92-.087 12.255 7.436 11.062z"/>
        <path fill="#000" fill-rule="nonzero" d="M515.777 292.237s10.696-1.018 11.633-.253c.936.765 7.013 4.677 10.61 2.21 3.595-2.469 1.196-11.063 1.196-11.403 0-.34-.341-12.513-.341-12.513l-6.418-8.594-8.037-15.062L508 245l.428 23.92-.087 12.255 7.436 11.062z" opacity=".1"/>
        <path fill="#F8C7B9" fill-rule="nonzero" d="M422 207.535s-.843 10.3-7.241 10.465c0 0-1.816-1.096-4.258-2.922-5.624-4.217-14.545-12.325-12.08-19.869 3.535-10.802 20.716 9.13 20.716 9.13l1.315 1.484 1.548 1.712z"/>
        <path fill="#000" fill-rule="nonzero" d="M422 207.687s-.84 10.15-7.217 10.313c0 0-1.81-1.08-4.244-2.88l-.539-.69a8.45 8.45 0 0 0 3.495.933 4.73 4.73 0 0 0 4.539-2.851c.671-1.305 1.26-2.65 1.765-4.027.31-.802.53-1.635.658-2.485l1.543 1.687z" opacity=".1"/>
        <path fill="#E7EFFD" fill-rule="nonzero" d="M419.1 227l-1.496-1.924-5.038-6.493L410 215.27c1.127.59 2.37.925 3.642.98 1.674.041 3.548-.59 4.73-2.987a38.11 38.11 0 0 0 1.84-4.232c.827-2.36.815-3.541.52-3.972-.296-.431 1.856 1.582 2.891 2.561l.036.036.485.454.177.354 2.537 5.06v.212c.248 1.623 1.105 11.817-7.758 13.263z"/>
        <path fill="#65617D" fill-rule="nonzero" d="M470 446.652s-7.094 4.715-10.639 4.054c-3.544-.66-7.18 1.205-7.18 1.205a21.365 21.365 0 0 1-8.955 5.914c-5.707 1.969-13.755 1.193-18.315-.348-2.157-.73-2.334-1.668-1.295-2.832 1.141-1.298 3.8-2.856 6.849-4.709 5.827-3.51 12.07-10.426 12.07-10.426s.086-1.737 1.102-2.479a13.272 13.272 0 0 0 1.713-1.807c.907-1.089 1.757-2.224 1.757-2.224l20.867.614s.354 1.523.633 3.081c.239 1.01.336 2.05.291 3.087a2.822 2.822 0 0 0 .571 2.138l.377 3.475.154 1.257zM514.974 452.259c-.248 1.04-.565 2.903-.683 3.779l-.074.481s-1.694 3.826-10.942 5.219c-9.247 1.393-9.275-3.22-9.275-3.22s.034-.494.09-1.24c.164-2.034.497-5.93.746-6.759.328-1.128-.254-6.088-.254-6.088l-.096-5.177-.074-3.597L509.794 434c.095 1.197.261 2.386.497 3.561.094.653.324 1.277.673 1.828.836.958 1.333 5.218 1.333 5.218s3.01 6.26 2.677 7.652z"/>
        <path fill="#000" fill-rule="nonzero" d="M468.349 433.67s.364 1.483.651 3c-2.317.411-12.443 2.097-14.971.919-2.87-1.336-9.029-2.086-9.029-2.086l.1-.338c.933-1.06 1.807-2.165 1.807-2.165l21.442.67zM510 438.39c-3.925-.655-12.513.928-15.926 1.61l-.074-3.423L509.488 435c.1 1.14.27 2.271.512 3.39z" opacity=".1"/>
        <path fill="#3F3D56" fill-rule="nonzero" d="M518.737 308.706l-.34 12.03s.427 18.347-.854 21.248c-1.28 2.902-1.28 14.592-1.28 14.592s.853 5.543-.087 6.737-.254 5.629.427 7.936c.68 2.307.086 8.023.086 8.023l-.173 32.252s-.934 8.357-2.134 9.556c-.7.721-.96 1.763-.68 2.728 0 0-1.021 4.776-.768 5.635.254.86.768 2.815-1.194 3.75-1.96.933-1.453 3.927-1.453 3.927-4.69-1.113-18.002 1.88-18.002 1.88a80.072 80.072 0 0 1-3.755-9.136 4.723 4.723 0 0 1 3.414-6.223c1.788-.26-1.28-3.414-1.28-3.414s.34-.427-.514-3.495c-.853-3.069.168-10.959.427-12.977l1.535-11.945s-.681-12.538-.168-13.052c.514-.513 2.215-5.462 1.367-7.082-.848-1.621-2.226-12.285-2.226-12.885 0-.6-1.102-14.419-1.102-14.419s-1.027-9.643-.767-11.69c.26-2.048-.686-9.638-.686-9.638 0-6.344-3.669-13.144-3.669-13.144l-.092.248-7.908 20.832s-1.28 6.31-2.388 9.891a64.695 64.695 0 0 0-1.667 7.412l-.075.455c0 .19-.058.352-.075.479l-.052.346s.577 4.522-.346 5.975c-.923 1.454-1.961 5.802-1.961 6.996 0 1.194.086 5.802.086 5.802s.34 9.13-.577 10.157c-.917 1.027-.432 1.874-.432 1.874s1.534 6.921.853 8.704c-.68 1.782-.167 5.969-.167 5.969s-1.367 13.23-1.534 13.911c-.167.68-1.113 5.975-.087 6.402 1.027.427 2.982 2.982 2.982 2.982s.433 11.183-1.107 12.031c-1.54.848-.686 5.19-.686 5.19s-12.367 2.389-15.182 1.022c-2.815-1.367-8.877-2.134-8.877-2.134l.848-2.803c-.052.098-.617 1.009-1.021-2.486-.421-3.668 3.16-1.88 3.16-1.88s2.816.686-1.73-3.75c-4.545-4.434-2.307-8.962-2.047-8.962.26 0 .86-6.563.86-6.563s.766-3.928.166-7.002-1.107-12.631-1.107-12.631.427-7.25-.34-9.891c-.768-2.642.507-7.429.767-8.536.26-1.108-.796-11.235-.796-11.235s.853-4.776.34-8.271c-.513-3.495.513-16.386.513-16.386l1.535-14.845s1.107-4.614.94-6.489c-.167-1.874 1.286-8.443 1.286-8.443a9.227 9.227 0 0 1 .68-4.095c.855-1.73 1.195-7.337 1.195-7.337l8.196-18.773 4.038-16.553 54.18-.513s.201 1.436.53 4.037.79 6.466 1.304 11.235c.473 4.332.992 9.425 1.494 15.094 1.638 18.099-1.823 21.34-1.823 21.34z"/>
        <path fill="#F8C7B9" fill-rule="nonzero" d="M514 158.727L501.298 172s-16.298-6.387-14.581-8.566c.661-.846.58-3.514.174-6.455-.58-4.655-1.891-10.008-1.891-10.008s28.484-4.542 26.1.164c-.876 1.703-.725 3.724-.18 5.58a20.834 20.834 0 0 0 3.08 6.012z"/>
        <path fill="#000" fill-rule="nonzero" d="M510.858 147.13c-.869 1.696-1.283 1.877-.742 3.725-3.692 3.883-8.39 8.145-14.231 8.145a20.446 20.446 0 0 1-9.01-2.074c-.576-4.635-1.875-9.966-1.875-9.966s28.238-4.521 25.858.17z" opacity=".1"/>
        <path fill="#F8C7B9" fill-rule="nonzero" d="M516 138.238c-.189 10.968-9.311 19.762-20.5 19.762s-20.311-8.794-20.5-19.762v-.285c.08-11.098 9.322-20.031 20.643-19.952 11.32.078 20.432 9.139 20.351 20.237H516z"/>
        <path fill="#000" fill-rule="nonzero" d="M519 272.665c-2.682 0-11.622.102-21.615.264h-.12l-3.3.06h-.103c-11.846.197-23.526-2.208-28.206-1.753-9.958.969 3.58-9.572 3.58-9.572a80.32 80.32 0 0 0 22.698 2.393l2.878-.156c9.049-.532 18.15-1.417 22.904-2.901.317 2.74.772 6.718 1.284 11.665z" opacity=".1"/>
        <path fill="#5F5D7E" fill-rule="nonzero" d="M519 272.665c-2.682 0-11.622.102-21.615.264h-.12l-3.3.06h-.103c-11.846.197-23.526-2.21-28.206-1.754-9.958.975 3.58-9.577 3.58-9.577a80.28 80.28 0 0 0 22.698 2.394l2.878-.155c9.049-.533 18.15-1.419 22.904-2.897.317 2.741.772 6.703 1.284 11.665z"/>
        <path fill="#000" fill-rule="nonzero" d="M490.58 165.066L475.01 172.4 463 266s7.104-3.238 11.17-1.193c4.067 2.046 16.587.173 16.587.173s9.151-.513 10.495.513c1.345 1.026 17.25-4.287 17.25-4.287s2.86-6.477.676-7.491c-2.185-1.015.697-11.07.697-11.07l-1.372-67.518-2.711-8.696-7.276-4.431-7.435 5.964-3.552.513-6.95-3.411z" opacity=".1"/>
        <path fill="#E7EFFD" fill-rule="nonzero" d="M490.574 164.071l-15.565 7.33L463 265s7.102-3.238 11.168-1.193c4.066 2.046 16.583.167 16.583.167s9.15-.507 10.494.513c1.344 1.02 17.258-4.264 17.258-4.264s2.86-6.476.675-7.49c-2.185-1.015.686-11.098.686-11.098l-1.372-67.509-2.711-8.69-7.274-4.436-7.434 5.97-3.55.512-6.949-3.41z"/>
        <path fill="#000" fill-rule="nonzero" d="M490.109 167.409s4.484 5.404 4.404 6.523c-.08 1.119-.257 3.774-.257 3.774l-3.386 6.958s-1.86 8.662-1.86 10.465c0 1.803-2.962 17.394-2.962 17.394l-3.564 24.021L478 268.028l4.576 7.972 5.41-4.638 7.196-56.102 1.522-11.063s1.607-19.898 1.607-21.957c0-2.058-.927-7.462-.927-7.462s1.099-5.148 5.669-6.378c4.57-1.229-.338-.26-.338-.26L500.09 166l-2.288.94s-6.338-1.931-7.693.469z" opacity=".1"/>
        <path fill="#FF5538" fill-rule="nonzero" d="M490.095 167.375s4.489 5.405 4.403 6.519c-.086 1.114-.257 3.776-.257 3.776l-3.38 6.96s-1.864 8.666-1.864 10.47c0 1.803-2.962 17.4-2.962 17.4l-3.552 24.024L478 268.02l4.575 7.981 5.415-4.64 7.189-56.117 1.527-11.06s1.606-19.907 1.606-21.966c0-2.059-.926-7.465-.926-7.465s1.098-5.15 5.667-6.35c4.57-1.201-.337-.256-.337-.256L500.09 166l-2.287.945s-6.354-1.977-7.71.43z"/>
        <path fill="#000" fill-rule="nonzero" d="M486.334 159s-.67.513-.833 3.923C485.338 166.333 483 174 483 174s8.669-6.135 13-5.455L486.334 159z" opacity=".1"/>
        <path fill="#E7EFFD" fill-rule="nonzero" d="M486.334 158s-.67.507-.833 3.919C485.338 165.33 483 173 483 173s8.669-6.137 13-5.451L486.334 158z"/>
        <path fill="#000" fill-rule="nonzero" d="M510.679 156L497 168.227s11.504 6.963 13.003 8.662c1.498 1.699 2.997-16.647 2.997-16.647L510.679 156z" opacity=".1"/>
        <path fill="#E7EFFD" fill-rule="nonzero" d="M511.663 155L498 167.23s11.495 6.96 13.004 8.659c1.51 1.699 2.996-16.642 2.996-16.642L511.663 155z"/>
        <path fill="#000" fill-rule="nonzero" d="M486.737 159.128s-1.537-.767-2.987 1.453a9.703 9.703 0 0 1-4.189 3.24s-15.558 2.472-16.177 4.519l-7.268.426s-2.565.34-2.82 5.713c-.253 5.372-1.623 5.886-1.623 5.886s-2.992 5.286-2.732 8.012c.26 2.727-2.311 4.099-2.311 4.099l10.682 27.716s.347 11.425-1.623 15.604c-1.97 4.18-5.639 22.684-5.639 22.684s1.537-.34 1.45.68c-.087 1.02-1.826 12.198-1.826 12.198s-.514 4.433-1.369 5.972c-.855 1.539-.942 9.546-.942 9.546L446 292.675s3.247 7.252 8.204 6.226c4.957-1.027 13.93-20.378 13.93-20.378l5.73-20.896 4.444-20.638 1.282-13.984 2.051-30.956 2.993-20.47s3.305-11.016 2.103-12.451z" opacity=".1"/>
        <path fill="#65617D" fill-rule="nonzero" d="M486.742 158.128s-1.54-.766-2.989 1.447a9.64 9.64 0 0 1-4.183 3.24s-15.533 2.473-16.156 4.52l-7.259.426s-2.556.346-2.816 5.718c-.26 5.373-1.62 5.88-1.62 5.88s-2.99 5.292-2.73 8.019c.26 2.726-2.308 4.093-2.308 4.093l10.674 27.716s.34 11.425-1.621 15.604c-1.962 4.18-5.637 22.69-5.637 22.69s1.535-.346 1.454.68c-.081 1.026-1.881 12.192-1.881 12.192s-.514 4.438-1.368 5.972c-.854 1.533-.935 9.552-.935 9.552L446 291.676s3.243 7.246 8.193 6.226c4.951-1.02 13.93-20.384 13.93-20.384l5.717-20.89 4.437-20.638 1.281-13.99 2.049-30.956 2.989-20.464s3.34-11.005 2.146-12.452z"/>
        <path fill="#000" fill-rule="nonzero" d="M432 223.607l-4.89 3.376s-7.476.24-12.822-1.078l-2.718-1.209-.57-.24.57.178c2.82.838 5.026.82 6.753.24 6.918-2.333 6.155-13.766 5.887-16.35 0-.262-.046-.427-.057-.49a.16.16 0 0 1 0-.034l.04.068a3.775 3.775 0 0 0 .627.776l2.444 4.887v.205l4.736 9.671z" opacity=".1"/>
        <path fill="#65617D" fill-rule="nonzero" d="M449.207 190l-2.415.687-.343 4.912s-2.84-.431-3.613 2.913c-.774 3.344-2.153 4.918-2.153 4.918s-4.737 3.961-4.993 7.323l-2.91 1.812s-6.802-1.555-8.35-4.311c0 0 3.102 22.239-13.43 16.808 0 0 18.51 8.099 19.371 9.223.862 1.125 6.54 4.393 11.708 1.638 5.167-2.756 6.285-6.992 6.285-6.992s4.992-6.991 5.161-8.017c.169-1.025 4.073-2.243 4.073-2.243L465 200.744 449.207 190z"/>
        <path fill="#000" fill-rule="nonzero" d="M508.718 166.3l2.473-11.3s1.107 3.68 2.22 4.536l3.665 2.83s3.667 1.707 4.946 1.707c1.28 0 8.186 1.8 9.04 2.743.852.943 4.265.254 4.265.254s2.813.943 5.286 1.54c2.473.595 3.666 4.71 3.153 6.364a4.949 4.949 0 0 0 1.193 4.63c1.026 1.03 1.54 4.368 1.54 4.368a4.997 4.997 0 0 1 2.882 2.483c.853 1.88.576 5.988.576 5.988l-12.682 17.979s.167 6.943-.34 8.477c-.507 1.533 1.787 27.733 1.787 27.733l2.646 45.024s-3.499 2.997-4.266 3.339c-.766.341-1.533-15.919-1.533-16.52 0-.602-19.697-29.62-19.697-29.62s-2.646-4.277-2.646-5.208c0-.932-2.473-9.588-2.473-9.588L507 217.365l1.718-51.064z" opacity=".1"/>
        <path fill="#65617D" fill-rule="nonzero" d="M550.996 191.469v.984L538.3 210.398s.173 6.947-.335 8.475c-.3.897.352 10.113.958 17.684.427 5.46.831 10.061.831 10.061l1.125 19.103 1.518 25.934s-3.497 2.998-4.264 3.34c-.768.341-1.535-15.925-1.535-16.527 0-.602-19.724-29.627-19.724-29.627s-2.649-4.29-2.649-5.21c0-.92-2.475-9.592-2.475-9.592L508 217.34l1.702-51.04L511.1 155s2.135 3.687 3.243 4.538l3.67 2.825s3.67 1.737 4.95 1.737c1.282 0 8.2 1.794 9.055 2.738.854.944 4.264.255 4.264.255s2.816.943 5.292 1.54c2.475.596 3.676 4.711 3.162 6.367a4.937 4.937 0 0 0 1.194 4.631c1.022 1.025 1.535 4.365 1.535 4.365a5.025 5.025 0 0 1 2.886 2.489c.611 1.244.669 3.624.646 4.984z"/>
        <path fill="#000" fill-rule="nonzero" d="M447 419c.42 0 18.335.629 17.995 3.31C464.655 424.99 447 419 447 419zM451 424s11.52 1.908 8.493 3.653C456.467 429.398 451 424 451 424zM496 417s19.639 1.843 16.7 4.185c-2.938 2.34-9.904 2.722-10.21 2.814-.307.092-6.49-6.999-6.49-6.999zM494 425s10.666 2.085 10.993 4.49C505.32 431.897 494 425 494 425zM499 374s10.386 2.366 11 4l-11-4zM460.636 382s-5.807 1.436-.184 4.319.184-4.319.184-4.319zM484 299c.566 0 9.709-2.967 12.888-1.673A21.48 21.48 0 0 0 504 298.66l-20 .34zM485 308.724l-.092.854-7.88 20.99s-1.272 6.356-2.372 9.965A65.967 65.967 0 0 0 473 348l6.997-44 5.003 4.724z" opacity=".1"/>
        <path fill="#3F3D56" fill-rule="nonzero" d="M497 272.94l-3.09.06h-.098L492 264.16l2.697-.16z"/>
        <path fill="#F8C7B9" fill-rule="nonzero" d="M537 262.412l-2.106 1.774-7.015 5.988s-19.002 10.499-24.236.526c-4.612-8.784 16.93-15.057 22.118-16.422a55.262 55.262 0 0 1 1.102-.278L537 262.412z"/>
        <path fill="#000" fill-rule="nonzero" d="M455 178s3.99 1.874 4.903 4.436C460.816 184.998 455 178 455 178zM444 203s-5.791 6.937-3.437 9.618C442.918 215.298 444 203 444 203zM541 182s-4.842.519-5 5l5-5zM494 252c.508-.498 12.288-17.402 15-15.906L494 252zM516 138.429a19.997 19.997 0 0 1-2.428 9.574l-.15-.028c-1.3-.271-1.974-1.769-2.97-2.702a4.067 4.067 0 0 0-4.657-.646 4.67 4.67 0 0 0-2.282 4.373c-.658-2.73-.448-5.628-1.088-8.365-.64-2.736-2.568-5.502-5.21-5.548-1.165 0-2.463.41-3.29-.432-.495-.507-.582-1.307-.966-1.93-1.886-3.018-7.632-1.492-9.978.058s-5.064 4.033-7.981 5.358c.08-11.203 9.322-20.22 20.643-20.14 11.32.08 20.432 9.225 20.351 20.428H516z" opacity=".1"/>
        <path fill="#7C5C5C" fill-rule="nonzero" d="M492.905 132.506c.368.625.466 1.437.956 1.951.813.859 2.132.415 3.256.438 2.616.047 4.523 2.85 5.157 5.625.634 2.774.426 5.712 1.077 8.48a4.755 4.755 0 0 1 2.265-4.433 3.952 3.952 0 0 1 4.61.654c.985.946 1.653 2.465 2.938 2.74 1.285.274 2.524-.976 2.991-2.337.467-1.36.432-2.88.738-4.304.576-2.693 2.304-4.906 3.272-7.47a13.704 13.704 0 0 0-.086-9.649c-.64-1.623-1.59-3.083-2.241-4.701-.98-2.465-1.234-5.257-2.432-7.593-2.005-3.93-6.73-5.893-10.62-4.415-1.85.7-3.457 2.067-5.341 2.68-2.518.824-5.215.205-7.82-.163-2.604-.368-5.49-.403-7.588 1.332-2.415 2.003-3.072 5.764-5.342 7.96-.95.923-2.132 1.513-3.135 2.336-1.002.824-1.872 2.12-1.728 3.505.15 1.787 1.878 3.41 1.239 5.07-.23.48-.552.91-.945 1.267a18.12 18.12 0 0 0-4.126 7.113c4.558 1.449 9.496-3.65 13.069-6.062 2.287-1.536 7.969-3.09 9.836-.024z"/>
        <path fill="#000" fill-rule="nonzero" d="M538 262.259L535.815 264c-1.924-3.134-9.815-9.402-9.815-9.402l.343-.325c.729-.18 1.143-.273 1.143-.273L538 262.259z" opacity=".1"/>
        <path fill="#E7EFFD" fill-rule="nonzero" d="M540 258.951s-.754 1.95-1.525 3.627c-.771 1.678-1.622 3.214-1.661 1.967-.085-2.445-9.814-10.662-9.814-10.662l1.321-1.335 1.525-1.548L540 258.951z"/>
        <path fill="#000" fill-rule="nonzero" d="M539.845 246.004L541 265c-2.724-4.116-10.197-14.661-15-14.322l11.636-13.014c.485-.525.932-1.08 1.339-1.664.438 5.428.87 10.004.87 10.004z" opacity=".1"/>
        <path fill="#000" fill-rule="nonzero" d="M540 258.558s-.775 1.85-1.567 3.442c-3.006-3.964-7.136-8.645-10.433-9.531l1.567-1.469L540 258.558z" opacity=".1"/>
        <path fill="#65617D" fill-rule="nonzero" d="M547.99 190l3.047 2.386s5.07.086 5.58 4.35c.508 4.264 5.144 6.224 5.144 6.224s3.465 3.492 3.465 5.11c0 1.62 2.623 4.519 2.623 4.778 0 .26 2.538 5.457 2.195 6.39-.342.934 2.71 5.031 1.778 6.564a37.953 37.953 0 0 0-2.029 4.264s-3.973 7.676-6.002 9.122c-2.03 1.446-11.336 13.64-11.336 13.64S542.48 264.422 542.48 268c0 0-9.718-16.365-15.48-15.939l11.25-13.046s1.943-2.126 2.03-3.406c.085-1.279 5.413-7.162 7.95-7.416 0 0 .418-3.498-.68-3.584-1.097-.086-2.029-2.812-2.029-2.812s-7.431-8.863-7.528-14.492c-.098-5.63 9.998-17.305 9.998-17.305z"/>
        <path fill="#000" fill-rule="nonzero" d="M553 198s-7.354 5.136-5.779 6.786C548.796 206.436 553 198 553 198zM553 220s13.603-4.5 15 0h-15zM470 447.135s-7.094 4.53-10.639 3.896c-3.544-.634-7.18 1.158-7.18 1.158a21.45 21.45 0 0 1-8.955 5.682c-5.707 1.892-13.755 1.146-18.315-.334-2.157-.701-2.334-1.603-1.295-2.722 4.96.963 16.038 2.883 19.023 1.486 3.88-1.814 9.457-5.765 9.457-5.765s7.265-.985 8.276-.985c.719 0 6.33-2.26 9.497-3.551l.131 1.135zM514 456l-.076.485s-1.754 3.85-11.324 5.251c-9.57 1.402-9.6-3.24-9.6-3.24s.035-.497.094-1.248c3.04 1.165 9.67 2.466 20.906-1.248zM459 197s0 19.918-1.563 21.885C455.875 220.85 459 197 459 197zM536 203l2.85 7s1.136-6.872-2.85-7z" opacity=".1"/>
        <g fill="#000" fill-rule="nonzero" opacity=".1">
            <path d="M475.656 128.287c.624-1.607-1.016-3.178-1.23-4.9a3.212 3.212 0 0 0-.272 1.549c.11 1.294 1.063 2.501 1.318 3.703.071-.112.133-.23.184-.352zM504.025 146.695c-.612-2.693-.433-5.547-1.057-8.245-.624-2.698-2.548-5.518-5.165-5.564-1.156 0-2.45.416-3.265-.428-.497-.508-.578-1.317-.965-1.935-1.872-3.034-7.569-1.497-9.903.057-3.466 2.312-8.297 7.182-12.78 6.084-.214.515-.41 1.04-.578 1.578 4.57 1.433 9.522-3.611 13.104-5.998 2.311-1.548 8.031-3.085 9.903-.052.37.619.468 1.422.96 1.93.814.85 2.137.41 3.264.434 2.623.046 4.535 2.82 5.17 5.564.636 2.744.428 5.65 1.081 8.389a4.715 4.715 0 0 1 .231-1.814zM516.875 143.494c-.462 1.352-1.681 2.6-2.999 2.31-1.317-.288-1.958-1.773-2.94-2.715a4.044 4.044 0 0 0-4.623-.641 4.657 4.657 0 0 0-2.27 4.137 4.484 4.484 0 0 1 2.016-2.473 4.004 4.004 0 0 1 4.622.647c.988.936 1.659 2.438 2.947 2.71 1.288.271 2.53-.965 2.999-2.311.243-.8.4-1.623.468-2.456-.057.268-.13.533-.22.792zM520.896 131.846c-.959 2.536-2.704 4.72-3.281 7.39a17.009 17.009 0 0 0-.249 1.64c.578-2.657 2.311-4.836 3.276-7.366a13.18 13.18 0 0 0 .792-3.542 12.936 12.936 0 0 1-.538 1.878z"/>
        </g>
        <ellipse cx="398" cy="194" fill="#E6E8EC" fill-rule="nonzero" rx="1" ry="1"/>
        <ellipse cx="471" cy="457" fill="#6C63FF" fill-rule="nonzero" opacity=".1" rx="50" ry="5"/>
        <path fill="#DCDFED" fill-rule="nonzero" d="M288.072 123.274L137 221.144l98.589 177.558a6.88 6.88 0 0 0 4.39 3.345l89.33 21.76a6.89 6.89 0 0 0 7.821-3.698l44.31-91.923L430 263.364 314.762 127.225c-6.634-7.834-18.064-9.526-26.69-3.951z"/>
        <path fill="#000" fill-rule="nonzero" d="M432 264.362l-.427.577-28.446 37.972-.514.686-19.173 25.594-37.896 78.626-1.063 2.197-5.35 11.093a6.89 6.89 0 0 1-7.832 3.697l-89.327-21.769a6.867 6.867 0 0 1-4.39-3.346l-8.59-15.441-1.543-2.78-62.003-111.707-.531-.951L139 222.145l3.131-2.03 23.737-15.372.549-.358 49.987-32.383 3.154-2.042 70.506-45.678c8.625-5.585 20.064-3.894 26.7 3.946l52.57 62.123 2.31 2.769 38.156 45.072.208.248 19.184 22.658 2.415 2.855.393.41z" opacity=".1"/>
        <path fill="#000" fill-rule="nonzero" d="M408 237.474l-4.655 32.298-1.403 9.748-.803 20.763-.063 1.62-4.176 108.49a6.878 6.878 0 0 1-2.681 5.178 6.897 6.897 0 0 1-5.699 1.265L343.508 406.8l-.485-.11-115.44-25.729-2.12-.473L162 366.334l1.455-97.542.047-3.259.438-29.524.486-32.588 49.972-32.38 3.154-2.041c46.351 4.747 107.996 13.877 149.756 20.389l2.31 2.768 38.116 45.069.266.248z" opacity=".1"/>
        <path fill="#FF5538" d="M413 199.02l-5.484 38.04-5.027 34.836-1.405 9.718-.803 20.75-4.241 110.034a6.87 6.87 0 0 1-2.683 5.174 6.908 6.908 0 0 1-5.702 1.264l-45.524-10.138-115.509-25.712L161 368.369l1.502-100.732.44-29.505.514-34.513.526-35.498c10.852-.513 28.708.645 50.025 2.784 47.732 4.778 112.799 14.443 155.341 21.1C395.398 196.08 413 199.02 413 199.02z"/>
        <path fill="#000" fill-rule="nonzero" d="M426.602 260.009l-24.365 11.965-124.35 61.066-114.597-94.837L140.124 219 137 221.032l25.858 46.694-1.499 100.874 65.458 14.637 8.554 15.452a6.855 6.855 0 0 0 4.38 3.347l89.132 21.772a6.868 6.868 0 0 0 7.798-3.7l5.338-11.1 45.41 10.153a6.87 6.87 0 0 0 5.687-1.265 6.889 6.889 0 0 0 2.677-5.182l4.23-110.19 28.896-38.671.081-.976-2.398-2.868z" opacity=".1"/>
        <path fill="#DCDFED" fill-rule="nonzero" d="M137.302 221l-10.29 176.088a6.875 6.875 0 0 0 5.373 7.111l273.273 60.642a6.883 6.883 0 0 0 5.561-1.188 6.873 6.873 0 0 0 2.766-4.966L430 263.21 278.365 337.53 137.302 221z"/>
        <path fill="#000" fill-rule="nonzero" d="M128.567 402.065l141.812-87.554a10.406 10.406 0 0 1 13.26 2.076l126.927 148.14c.46.53.686.15 0 0l-281.999-62.662c-.807-.179-.703.421 0 0z" opacity=".1"/>
        <path fill="#E3E5F1" fill-rule="nonzero" d="M129.735 401.396l140.233-84.81a10.987 10.987 0 0 1 13.985 2.203L409.631 463.49a1.518 1.518 0 0 1-1.469 2.474L130.19 404.17a1.51 1.51 0 0 1-.455-2.774z"/>
    </g>
</svg>
