<svg xmlns="http://www.w3.org/2000/svg" width="150" height="30" viewBox="0 0 150 30">
    <g fill="#999" fill-rule="evenodd">
        <path d="M17.4 5.55L8.7 11.1l8.7 5.55-8.7 5.55L0 16.62l8.7-5.55L0 5.55 8.7 0l8.7 5.55zM8.655 23.985l8.7-5.55 8.7 5.55-8.7 5.55-8.7-5.55zM17.4 16.62l8.7-5.55-8.7-5.52L26.055 0l8.7 5.55-8.7 5.55 8.7 5.55-8.7 5.55-8.655-5.58zM41.58 5.55h7.035c4.485 0 8.19 2.595 8.19 8.52v1.245c0 5.97-3.465 8.655-8.055 8.655h-7.17V5.55zm3.93 3.345V20.61h3.015c2.55 0 4.26-1.665 4.26-5.37v-.975c0-3.705-1.8-5.37-4.395-5.37h-2.88zm13.38.18h3.15l.51 3.465c.6-2.355 2.13-3.615 4.905-3.615h.975V12.9h-1.62c-3.195 0-3.975 1.11-3.975 4.26v6.855H58.95V9.075h-.06zm10.32 7.77v-.42c0-4.995 3.195-7.725 7.545-7.725 4.44 0 7.545 2.73 7.545 7.725v.42c0 4.905-3.015 7.545-7.545 7.545-4.815-.045-7.545-2.625-7.545-7.545zm11.115-.045v-.375c0-2.775-1.395-4.44-3.615-4.44-2.175 0-3.615 1.53-3.615 4.44v.375c0 2.685 1.395 4.215 3.615 4.215 2.22-.045 3.615-1.53 3.615-4.215zm6.015-7.725h3.24l.375 2.82c.78-1.89 2.445-3.195 4.905-3.195 3.795 0 6.3 2.73 6.3 7.785v.42c0 4.905-2.775 7.5-6.3 7.5-2.355 0-3.975-1.065-4.77-2.775v7.545h-3.795l.045-20.1zM97.215 16.8v-.33c0-2.97-1.53-4.44-3.57-4.44-2.175 0-3.615 1.665-3.615 4.44v.285c0 2.64 1.395 4.305 3.57 4.305 2.235-.045 3.615-1.47 3.615-4.26zm9.69 4.455l-.33 2.73h-3.33V4.08h3.795v7.635c.84-1.95 2.505-3.015 4.86-3.015 3.57.045 6.21 2.505 6.21 7.455v.465c0 4.95-2.505 7.785-6.3 7.785-2.505-.06-4.125-1.215-4.905-3.15zm7.215-4.635v-.375c0-2.73-1.485-4.26-3.57-4.26-2.13 0-3.615 1.71-3.615 4.305v.33c0 2.775 1.44 4.395 3.57 4.395 2.28 0 3.615-1.425 3.615-4.395zm5.655.225v-.42c0-4.995 3.195-7.725 7.545-7.725 4.44 0 7.545 2.73 7.545 7.725v.42c0 4.905-3.06 7.545-7.545 7.545-4.815-.045-7.545-2.625-7.545-7.545zm11.145-.045v-.375c0-2.775-1.395-4.44-3.615-4.44-2.175 0-3.615 1.53-3.615 4.44v.375c0 2.685 1.395 4.215 3.615 4.215 2.235-.045 3.615-1.53 3.615-4.215zm9.03-.555l-5.235-7.17h4.485l3.015 4.485 3.06-4.485h4.44l-5.31 7.125L150 23.985h-4.395l-3.42-4.95-3.33 4.95h-4.59l5.685-7.74z"/>
    </g>
</svg>
