<svg xmlns="http://www.w3.org/2000/svg" width="99" height="30" viewBox="0 0 99 30">
    <g fill="#999" fill-rule="evenodd">
        <path d="M98.906 29.57V.302h-30.52v29.27h30.52zM91.951 8.708c-2.351-1.351-4.703-2.052-6.905-2.052-2.35 0-4.303.75-5.803 2.252-1.551 1.45-2.351 3.252-2.351 5.504 0 2.15.8 4.002 2.301 5.504 1.6 1.4 3.502 2.1 5.804 2.1 2.451 0 4.853-.75 7.205-2.251v3.152c-2.203 1.2-4.654 1.801-7.356 1.801-2.301 0-4.203-.45-5.804-1.35a11.233 11.233 0 0 1-3.753-3.753c-.9-1.7-1.4-3.402-1.4-5.203 0-3.003 1.05-5.454 3.202-7.456 2.102-2.001 4.704-3.052 7.755-3.052 2.201 0 4.553.55 7.105 1.701v3.103zM64.984.3H34.463v29.27h30.52V.3zM43.819 4.654h5.304c1.7 0 3.002.2 3.952.65.95.5 1.65 1.1 2.102 1.852.5.8.75 1.7.75 2.751 0 2.001-1 3.402-3.102 4.254 1.5.25 2.701.85 3.552 1.85.85.901 1.251 2.052 1.3 3.353-.049 1-.3 1.95-.8 2.752-.55.8-1.3 1.451-2.351 2.001-1.05.5-2.302.75-3.853.75H43.82V4.655z"/>
        <path d="M48.622 13.31c1.55 0 2.652-.3 3.302-.85.65-.651 1-1.402 1-2.352 0-1.901-1.25-2.902-3.702-2.902h-2.5v6.104h1.9zm.8 2.602h-2.7v6.353h2.901c1.35 0 2.452-.1 3.152-.3.65-.35 1.1-.75 1.4-1.2.3-.5.501-1.05.501-1.651-.05-.6-.2-1.152-.55-1.651-.3-.551-.8-.951-1.502-1.202-.65-.25-1.75-.4-3.201-.35zM30.96.302H.439V29.57H30.96V.3zM9.746 24.866V4.654h5.303c1.702 0 2.953.2 3.903.65.95.45 1.701 1.1 2.152 1.901.5.75.75 1.651.8 2.702-.05 2-1.05 3.402-3.152 4.302 1.551.251 2.702.851 3.553 1.802.85.9 1.3 2.051 1.3 3.352 0 1.05-.25 2.001-.8 2.752-.55.85-1.3 1.5-2.301 2.001-1.05.5-2.352.75-3.903.75H9.746v.001z"/>
        <path d="M15.15 7.206h-2.502v6.104h1.95c1.502 0 2.603-.3 3.254-.85.65-.601 1-1.402 1-2.302 0-1.952-1.25-2.952-3.703-2.952zm.2 8.706h-2.702v6.353h2.851c1.502 0 2.602-.1 3.253-.3.55-.25 1-.6 1.35-1.1.3-.55.45-1.102.5-1.751-.05-.701-.25-1.251-.55-1.651a2.674 2.674 0 0 0-1.5-1.152c-.7-.3-1.801-.4-3.203-.4z"/>
    </g>
</svg>
