<svg xmlns="http://www.w3.org/2000/svg" xmlns:xlink="http://www.w3.org/1999/xlink" width="77" height="30" viewBox="0 0 77 30">
    <defs>
        <path id="a" d="M0 .003h29.997V30H0z"/>
    </defs>
    <g fill="none" fill-rule="evenodd">
        <g>
            <mask id="b" fill="#fff">
                <use xlink:href="#a"/>
            </mask>
            <path fill="#FF5433" d="M29.997 15.001C29.997 23.285 23.282 30 15 30c-8.284 0-15-6.715-15-14.999C0 6.718 6.716.003 15 .003 23.282.003 29.997 6.718 29.997 15" mask="url(#b)"/>
        </g>
        <path fill="#001A33" d="M23.473 23v-6.628h-7.946V23H13V7h2.527v6.949h7.946V7H26v16zM39.334 23h-2.58v-5.234L31 7h2.624l4.409 7.794L42.354 7H45l-5.666 10.674zM50.759 15.754h3.647c2.526 0 3.952-1.051 3.952-3.223 0-2.102-1.426-3.108-3.952-3.108H50.76v6.331zM54.523 7C58.638 7 61 8.989 61 12.463c0 3.611-2.362 5.714-6.477 5.714H50.76V23H48V7h6.523zM68.535 9.423v4.32h7.348v2.423h-7.348v4.411H77V23H66V7h10.742v2.423z"/>
    </g>
</svg>
