<svg xmlns="http://www.w3.org/2000/svg" width="150" height="30" viewBox="0 0 150 30">
    <path fill="#999" fill-rule="evenodd" d="M74.964.015L67.48 18.416 59.861.016h-5.655l-4.634 29.97h5.819l3.195-18.282 7.229 18.282h3.375l6.794-18.477L79.614 30h5.88L80.44.03 74.964.015zM0 0v5.128h12.005V29.97h6.188V5.128l12.204.028V.03L0 0zm121.942 30h7.1l6.758-11.481L143.185 30H150l-10.666-16.552 8.499-13.39h-7.016l-4.904 8.775-5.076-8.775-7.356-.028 8.61 13.76L121.942 30zm-30.344 0h25.293v-5.384H97.558v-7.72h17.28v-5.071h-17.28V5.443h18.677V.03H91.598V30zM36.282.015v29.97h6.188L42.5.016h-6.217z"/>
</svg>
