<svg xmlns="http://www.w3.org/2000/svg" width="132" height="30" viewBox="0 0 132 30">
    <g fill="#999" fill-rule="evenodd">
        <path d="M.061 20.802c-.109.286.04.346.075.395.328.239.661.41.997.602 1.78.944 3.46 1.22 5.217 1.22 3.579 0 5.8-1.904 5.8-4.968v-.06c0-2.833-2.507-3.862-4.86-4.605l-.306-.1c-1.775-.577-3.306-1.073-3.306-2.242v-.062c0-.999.895-1.735 2.282-1.735 1.54 0 3.37.512 4.548 1.164 0 0 .345.223.472-.112.07-.18.666-1.785.728-1.959.067-.189-.052-.328-.174-.403-1.344-.817-3.203-1.376-5.127-1.376l-.358.002c-3.276 0-5.562 1.978-5.562 4.814v.06c0 2.99 2.523 3.96 4.886 4.635l.38.117c1.723.53 3.207.984 3.207 2.197v.06c0 1.108-.965 1.933-2.52 1.933-.604 0-2.53-.012-4.61-1.327-.252-.147-.399-.253-.592-.37-.102-.065-.358-.177-.47.161L.06 20.802zm52.395 0c-.11.286.04.346.075.395.328.239.661.41.996.602 1.78.944 3.46 1.22 5.217 1.22 3.58 0 5.801-1.904 5.801-4.968v-.06c0-2.833-2.507-3.862-4.861-4.605l-.306-.1c-1.774-.577-3.306-1.073-3.306-2.242v-.062c0-.999.895-1.735 2.282-1.735 1.54 0 3.37.512 4.548 1.164 0 0 .346.223.472-.112.07-.18.667-1.785.729-1.959.067-.189-.052-.328-.174-.403-1.345-.817-3.204-1.376-5.128-1.376l-.358.002c-3.275 0-5.562 1.978-5.562 4.814v.06c0 2.99 2.523 3.96 4.886 4.635l.38.117c1.723.53 3.21.984 3.21 2.197v.06c0 1.108-.967 1.933-2.523 1.933-.604 0-2.53-.012-4.61-1.327-.252-.147-.4-.248-.59-.37-.064-.042-.367-.16-.472.161l-.706 1.959zm35.769-6.003c0 1.733-.323 3.097-.96 4.061-.629.955-1.58 1.42-2.907 1.42-1.33 0-2.277-.463-2.896-1.42-.626-.961-.944-2.328-.944-4.06 0-1.73.318-3.093.944-4.047.62-.944 1.566-1.404 2.896-1.404 1.327 0 2.279.46 2.91 1.404.634.954.957 2.316.957 4.046m2.987-3.21c-.293-.993-.75-1.867-1.36-2.596A6.572 6.572 0 0 0 87.56 7.25c-.913-.425-1.991-.641-3.201-.641-1.213 0-2.292.216-3.204.64a6.607 6.607 0 0 0-2.297 1.745c-.606.731-1.063 1.606-1.36 2.595-.29.987-.437 2.065-.437 3.211s.147 2.227.438 3.211c.296.99.75 1.865 1.362 2.595a6.41 6.41 0 0 0 2.294 1.73c.915.415 1.99.626 3.204.626 1.21 0 2.286-.21 3.2-.626.913-.415 1.686-1 2.295-1.73.609-.728 1.066-1.603 1.36-2.595.293-.986.44-2.067.44-3.21 0-1.144-.147-2.225-.44-3.212m24.532 8.229c-.1-.29-.38-.181-.38-.181-.435.166-.898.32-1.39.397-.5.077-1.049.117-1.638.117-1.446 0-2.594-.43-3.417-1.28-.825-.85-1.287-2.224-1.282-4.083.005-1.693.412-2.966 1.145-3.935.729-.964 1.837-1.459 3.316-1.459 1.233 0 2.172.142 3.156.453 0 0 .236.101.348-.207.261-.726.455-1.245.733-2.043.08-.226-.114-.323-.184-.35-.387-.152-1.302-.398-1.993-.502-.646-.1-1.402-.152-2.242-.152-1.255 0-2.373.214-3.33.641-.955.425-1.765 1.012-2.406 1.743-.641.73-1.128 1.605-1.454 2.594-.323.987-.487 2.07-.487 3.217 0 2.477.669 4.48 1.988 5.947 1.323 1.472 3.308 2.22 5.898 2.22 1.531 0 3.102-.311 4.23-.756 0 0 .217-.104.122-.355l-.733-2.026zm5.227-6.677c.142-.962.408-1.762.818-2.386.619-.947 1.563-1.466 2.89-1.466 1.328 0 2.205.521 2.834 1.466.417.624.599 1.459.67 2.386h-7.212zm10.059-2.115c-.254-.957-.883-1.924-1.295-2.367-.652-.7-1.288-1.19-1.92-1.463a7.396 7.396 0 0 0-2.897-.587c-1.263 0-2.408.211-3.338.649a6.644 6.644 0 0 0-2.329 1.777 7.284 7.284 0 0 0-1.37 2.624 11.354 11.354 0 0 0-.444 3.229c0 1.166.154 2.252.46 3.228.308.985.8 1.852 1.466 2.57.664.724 1.519 1.29 2.543 1.685 1.016.393 2.252.597 3.67.594 2.921-.01 4.46-.66 5.093-1.011.112-.062.219-.172.085-.485l-.661-1.852c-.1-.275-.38-.174-.38-.174-.724.269-1.753.751-4.151.746-1.569-.002-2.732-.465-3.46-1.188-.748-.74-1.114-1.83-1.178-3.365l10.113.01s.266-.005.293-.264c.01-.109.348-2.077-.3-4.356M39.98 13.14c.144-.962.407-1.762.817-2.386.62-.947 1.564-1.466 2.89-1.466 1.328 0 2.205.521 2.837 1.466.415.624.596 1.459.668 2.386h-7.212zm10.055-2.115c-.253-.957-.88-1.924-1.292-2.367-.651-.7-1.287-1.19-1.919-1.463a7.395 7.395 0 0 0-2.897-.587c-1.26 0-2.409.211-3.338.649a6.642 6.642 0 0 0-2.33 1.777 7.284 7.284 0 0 0-1.369 2.624 11.442 11.442 0 0 0-.444 3.229c0 1.166.154 2.252.46 3.228.308.985.8 1.852 1.466 2.57.663.724 1.518 1.29 2.542 1.685 1.017.393 2.252.597 3.671.594 2.92-.01 4.46-.66 5.093-1.011.112-.062.219-.172.084-.485l-.658-1.852c-.102-.275-.383-.174-.383-.174-.723.269-1.75.751-4.153.746-1.566-.002-2.729-.465-3.457-1.188-.748-.74-1.114-1.83-1.178-3.365l10.113.01s.266-.005.293-.264c.01-.109.348-2.077-.304-4.356m-31.915 8.737c-.395-.316-.45-.396-.584-.6-.199-.31-.3-.753-.3-1.314 0-.89.293-1.529.902-1.959-.008.003.87-.758 2.932-.73a20.74 20.74 0 0 1 2.744.233v4.598h.003s-1.285.276-2.732.363c-2.058.124-2.972-.594-2.965-.591m4.024-7.106c-.41-.03-.942-.048-1.578-.048-.868 0-1.705.11-2.49.321a6.498 6.498 0 0 0-2.113.98 4.877 4.877 0 0 0-1.467 1.667c-.357.666-.539 1.451-.539 2.331 0 .895.154 1.673.462 2.31.309.638.753 1.17 1.32 1.58.562.41 1.255.71 2.06.892.793.182 1.693.274 2.677.274 1.037 0 2.07-.085 3.072-.256a64.71 64.71 0 0 0 2.548-.492c.237-.058.473-.118.708-.182.251-.062.231-.33.231-.33l-.005-9.249c0-2.028-.542-3.532-1.608-4.463-1.061-.93-2.625-1.4-4.645-1.4-.758 0-1.978.105-2.71.251 0 0-2.209.428-3.118 1.139 0 0-.2.124-.09.402l.716 1.924c.09.249.33.164.33.164s.078-.03.167-.082C18.02 9.33 20.48 9.363 20.48 9.363c1.093 0 1.934.218 2.5.653.552.423.833 1.061.833 2.408v.428c-.87-.124-1.668-.196-1.668-.196m81.567-5.211c.077-.229-.085-.338-.152-.363-.171-.067-1.031-.249-1.695-.29-1.27-.078-1.976.136-2.607.42-.627.283-1.322.74-1.71 1.26v-1.23c0-.172-.122-.31-.291-.31h-2.592c-.17 0-.291.137-.291.31v15.083c0 .169.14.308.308.308h2.657a.307.307 0 0 0 .306-.308v-7.536c0-1.011.112-2.02.335-2.654.219-.626.517-1.128.885-1.489.37-.358.79-.609 1.25-.75a4.87 4.87 0 0 1 1.357-.192c.53 0 1.111.137 1.111.137.194.022.303-.097.368-.274.174-.462.666-1.846.76-2.122"/>
        <path d="M78.773.454a8.672 8.672 0 0 0-1-.239A7.925 7.925 0 0 0 76.4.111c-1.83 0-3.271.517-4.282 1.536-1.007 1.014-1.69 2.557-2.034 4.588l-.124.684h-2.296s-.279-.01-.338.293l-.376 2.105c-.027.199.06.326.328.326h2.235l-2.267 12.655c-.176 1.02-.38 1.857-.606 2.493-.222.627-.438 1.096-.706 1.44-.259.327-.502.57-.925.712a3.76 3.76 0 0 1-1.19.172c-.244 0-.57-.04-.81-.09a2.395 2.395 0 0 1-.547-.176s-.261-.1-.366.162a369.6 369.6 0 0 0-.75 2.055c-.07.201.03.358.156.405.298.104.52.174.925.27.561.133 1.036.14 1.48.14.93 0 1.78-.132 2.484-.385.706-.256 1.322-.701 1.869-1.302.589-.652.96-1.333 1.312-2.265.35-.92.652-2.063.89-3.395l2.28-12.891h3.33s.28.01.338-.296l.377-2.103c.025-.2-.06-.325-.33-.325h-3.234c.018-.072.164-1.21.535-2.282.159-.455.457-.825.708-1.079.249-.248.534-.424.848-.526.32-.105.686-.155 1.086-.155.303 0 .604.035.83.082.313.068.435.102.517.127.33.1.375.003.44-.156l.773-2.123c.08-.229-.117-.326-.186-.353M33.594 22.326c0 .169-.122.305-.29.305H30.62c-.169 0-.288-.136-.288-.305V.742c0-.168.12-.305.288-.305h2.682c.17 0 .291.137.291.305v21.584z"/>
    </g>
</svg>
